<svg width="580" height="385" viewBox="0 0 580 385" fill="none" xmlns="http://www.w3.org/2000/svg">
<g clip-path="url(#clip0_383_9291)">
<rect x="212" y="107" width="155.953" height="157.636" rx="11.2196" fill="#02076C"/>
<path d="M248.591 138.488L252.613 127.493H255.016L259.021 138.488H256.775L253.806 129.912L250.822 138.488H248.591ZM250.366 135.991L250.932 134.341H256.524L257.073 135.991H250.366ZM260.466 138.488V127.493H262.587V138.488H260.466ZM267.704 138.488L271.725 127.493H274.129L278.134 138.488H275.888L272.919 129.912L269.935 138.488H267.704ZM269.479 135.991L270.045 134.341H275.637L276.186 135.991H269.479ZM279.532 138.488V130.572H281.401L281.558 131.86C281.799 131.42 282.139 131.064 282.579 130.792C283.029 130.519 283.563 130.383 284.181 130.383C284.841 130.383 285.396 130.519 285.846 130.792C286.296 131.064 286.637 131.462 286.867 131.985C287.108 132.509 287.228 133.153 287.228 133.917V138.488H285.124V134.122C285.124 133.493 284.987 133.012 284.715 132.677C284.453 132.341 284.045 132.174 283.49 132.174C283.134 132.174 282.815 132.258 282.532 132.425C282.26 132.593 282.045 132.834 281.888 133.148C281.731 133.451 281.652 133.823 281.652 134.263V138.488H279.532ZM291.896 138.677C291.237 138.677 290.692 138.572 290.263 138.363C289.834 138.143 289.514 137.855 289.305 137.499C289.106 137.132 289.006 136.729 289.006 136.289C289.006 135.808 289.127 135.383 289.368 135.017C289.619 134.65 289.991 134.362 290.483 134.153C290.985 133.944 291.614 133.839 292.368 133.839H294.331C294.331 133.451 294.279 133.132 294.174 132.881C294.069 132.619 293.907 132.425 293.687 132.3C293.467 132.174 293.174 132.111 292.808 132.111C292.41 132.111 292.069 132.2 291.787 132.378C291.514 132.546 291.347 132.807 291.284 133.163H289.226C289.279 132.598 289.462 132.111 289.776 131.703C290.101 131.284 290.525 130.959 291.048 130.729C291.582 130.498 292.174 130.383 292.823 130.383C293.567 130.383 294.211 130.509 294.755 130.76C295.3 131.012 295.719 131.373 296.012 131.844C296.305 132.315 296.452 132.896 296.452 133.588V138.488H294.661L294.425 137.279C294.31 137.488 294.174 137.677 294.017 137.844C293.86 138.012 293.677 138.158 293.467 138.284C293.258 138.41 293.022 138.504 292.76 138.567C292.499 138.64 292.211 138.677 291.896 138.677ZM292.399 137.043C292.671 137.043 292.912 136.996 293.122 136.902C293.342 136.797 293.53 136.661 293.687 136.493C293.844 136.315 293.965 136.116 294.048 135.897C294.143 135.666 294.206 135.42 294.237 135.158V135.143H292.619C292.294 135.143 292.027 135.184 291.818 135.268C291.619 135.342 291.472 135.451 291.378 135.598C291.284 135.745 291.237 135.912 291.237 136.101C291.237 136.31 291.284 136.483 291.378 136.619C291.472 136.755 291.609 136.86 291.787 136.933C291.965 137.007 292.169 137.043 292.399 137.043ZM298.43 138.488V127.179H300.55V138.488H298.43ZM303.623 141.944L305.539 137.609H305.068L301.895 130.572H304.204L306.466 135.677L308.508 130.572H310.754L305.869 141.944H303.623ZM314.949 138.677C314.227 138.677 313.599 138.562 313.065 138.331C312.531 138.101 312.112 137.781 311.808 137.373C311.504 136.965 311.332 136.504 311.29 135.991H313.394C313.447 136.19 313.536 136.373 313.661 136.541C313.787 136.698 313.955 136.823 314.164 136.918C314.374 137.012 314.625 137.059 314.918 137.059C315.201 137.059 315.431 137.022 315.609 136.949C315.787 136.865 315.918 136.755 316.002 136.619C316.096 136.483 316.143 136.342 316.143 136.195C316.143 135.975 316.08 135.808 315.955 135.692C315.829 135.567 315.646 135.467 315.405 135.394C315.164 135.321 314.871 135.247 314.525 135.174C314.148 135.101 313.777 135.012 313.41 134.907C313.054 134.792 312.735 134.65 312.452 134.483C312.169 134.315 311.944 134.101 311.777 133.839C311.609 133.577 311.525 133.252 311.525 132.865C311.525 132.394 311.651 131.975 311.902 131.608C312.154 131.231 312.52 130.933 313.002 130.713C313.483 130.493 314.065 130.383 314.745 130.383C315.698 130.383 316.452 130.598 317.007 131.027C317.562 131.457 317.892 132.048 317.997 132.802H316.002C315.939 132.561 315.798 132.373 315.578 132.237C315.368 132.09 315.086 132.017 314.73 132.017C314.353 132.017 314.065 132.085 313.866 132.221C313.667 132.357 313.567 132.535 313.567 132.755C313.567 132.902 313.63 133.033 313.756 133.148C313.892 133.263 314.08 133.362 314.321 133.446C314.562 133.519 314.855 133.593 315.201 133.666C315.808 133.792 316.342 133.938 316.803 134.106C317.264 134.263 317.625 134.493 317.887 134.797C318.149 135.09 318.279 135.52 318.279 136.085C318.279 136.588 318.143 137.038 317.871 137.436C317.599 137.823 317.211 138.127 316.709 138.347C316.217 138.567 315.63 138.677 314.949 138.677ZM320.121 138.488V130.572H322.241V138.488H320.121ZM321.189 129.488C320.812 129.488 320.498 129.378 320.246 129.158C320.006 128.928 319.885 128.64 319.885 128.294C319.885 127.949 320.006 127.666 320.246 127.446C320.498 127.216 320.812 127.1 321.189 127.1C321.576 127.1 321.891 127.216 322.131 127.446C322.383 127.666 322.508 127.949 322.508 128.294C322.508 128.64 322.383 128.928 322.131 129.158C321.891 129.378 321.576 129.488 321.189 129.488ZM327.62 138.677C326.897 138.677 326.269 138.562 325.735 138.331C325.201 138.101 324.782 137.781 324.478 137.373C324.175 136.965 324.002 136.504 323.96 135.991H326.065C326.117 136.19 326.206 136.373 326.332 136.541C326.457 136.698 326.625 136.823 326.834 136.918C327.044 137.012 327.295 137.059 327.588 137.059C327.871 137.059 328.101 137.022 328.28 136.949C328.458 136.865 328.588 136.755 328.672 136.619C328.766 136.483 328.814 136.342 328.814 136.195C328.814 135.975 328.751 135.808 328.625 135.692C328.499 135.567 328.316 135.467 328.075 135.394C327.834 135.321 327.541 135.247 327.196 135.174C326.819 135.101 326.447 135.012 326.08 134.907C325.724 134.792 325.405 134.65 325.122 134.483C324.84 134.315 324.614 134.101 324.447 133.839C324.279 133.577 324.196 133.252 324.196 132.865C324.196 132.394 324.321 131.975 324.573 131.608C324.824 131.231 325.19 130.933 325.672 130.713C326.154 130.493 326.735 130.383 327.416 130.383C328.369 130.383 329.122 130.598 329.677 131.027C330.232 131.457 330.562 132.048 330.667 132.802H328.672C328.609 132.561 328.468 132.373 328.248 132.237C328.039 132.09 327.756 132.017 327.4 132.017C327.023 132.017 326.735 132.085 326.536 132.221C326.337 132.357 326.238 132.535 326.238 132.755C326.238 132.902 326.3 133.033 326.426 133.148C326.562 133.263 326.751 133.362 326.991 133.446C327.232 133.519 327.526 133.593 327.871 133.666C328.478 133.792 329.013 133.938 329.473 134.106C329.934 134.263 330.295 134.493 330.557 134.797C330.819 135.09 330.95 135.52 330.95 136.085C330.95 136.588 330.814 137.038 330.541 137.436C330.269 137.823 329.882 138.127 329.379 138.347C328.887 138.567 328.3 138.677 327.62 138.677ZM258.175 162.488L252.206 156.551C251.725 156.069 251.384 155.635 251.185 155.247C250.986 154.849 250.887 154.43 250.887 153.991C250.887 153.488 251.012 153.032 251.264 152.624C251.515 152.216 251.882 151.896 252.363 151.666C252.855 151.425 253.442 151.305 254.123 151.305C254.803 151.305 255.374 151.43 255.835 151.682C256.306 151.933 256.662 152.263 256.903 152.671C257.154 153.079 257.274 153.54 257.264 154.053H255.238C255.238 153.676 255.128 153.394 254.908 153.205C254.688 153.017 254.416 152.922 254.091 152.922C253.735 152.922 253.447 153.022 253.227 153.221C253.018 153.409 252.913 153.661 252.913 153.975C252.913 154.226 252.992 154.488 253.149 154.76C253.306 155.032 253.547 155.336 253.871 155.671L260.704 162.488H258.175ZM253.4 162.661C252.594 162.661 251.892 162.525 251.295 162.253C250.709 161.97 250.253 161.577 249.929 161.075C249.604 160.572 249.442 159.98 249.442 159.3C249.442 158.776 249.552 158.289 249.772 157.839C249.991 157.378 250.321 156.975 250.761 156.629C251.201 156.273 251.745 155.991 252.395 155.781L253.196 155.53L254.123 156.849L253.4 157.085C252.761 157.294 252.285 157.577 251.971 157.933C251.667 158.289 251.515 158.703 251.515 159.174C251.515 159.499 251.594 159.797 251.751 160.069C251.908 160.331 252.138 160.541 252.442 160.698C252.745 160.855 253.102 160.933 253.51 160.933C254.075 160.933 254.583 160.808 255.034 160.556C255.484 160.305 255.918 159.902 256.337 159.347C256.526 159.095 256.714 158.813 256.903 158.499C257.091 158.184 257.28 157.834 257.468 157.446L257.798 156.771H259.95L259.416 157.855C259.154 158.399 258.887 158.896 258.615 159.347C258.343 159.797 258.06 160.195 257.767 160.541C257.17 161.284 256.515 161.823 255.803 162.158C255.102 162.494 254.301 162.661 253.4 162.661ZM265.865 162.488V151.493H269.541C270.819 151.493 271.871 151.723 272.698 152.184C273.536 152.634 274.154 153.273 274.552 154.1C274.96 154.917 275.164 155.881 275.164 156.991C275.164 158.101 274.96 159.069 274.552 159.897C274.154 160.713 273.541 161.352 272.714 161.813C271.887 162.263 270.829 162.488 269.541 162.488H265.865ZM267.986 160.666H269.431C270.332 160.666 271.038 160.52 271.552 160.226C272.075 159.933 272.447 159.514 272.667 158.97C272.887 158.415 272.997 157.755 272.997 156.991C272.997 156.216 272.887 155.556 272.667 155.012C272.447 154.457 272.075 154.032 271.552 153.739C271.038 153.446 270.332 153.299 269.431 153.299H267.986V160.666ZM280.725 162.677C279.929 162.677 279.223 162.509 278.605 162.174C277.997 161.829 277.521 161.352 277.175 160.745C276.84 160.127 276.673 159.415 276.673 158.609C276.673 157.781 276.84 157.053 277.175 156.425C277.521 155.786 277.997 155.289 278.605 154.933C279.212 154.566 279.919 154.383 280.725 154.383C281.511 154.383 282.197 154.556 282.783 154.902C283.369 155.247 283.825 155.713 284.15 156.3C284.474 156.886 284.636 157.551 284.636 158.294C284.636 158.399 284.636 158.52 284.636 158.656C284.636 158.781 284.626 158.912 284.605 159.048H278.181V157.76H282.5C282.469 157.247 282.286 156.844 281.95 156.551C281.626 156.258 281.217 156.111 280.725 156.111C280.369 156.111 280.039 156.195 279.736 156.362C279.432 156.519 279.191 156.766 279.013 157.101C278.846 157.436 278.762 157.86 278.762 158.373V158.828C278.762 159.258 278.84 159.635 278.997 159.959C279.165 160.274 279.395 160.52 279.689 160.698C279.982 160.865 280.322 160.949 280.71 160.949C281.097 160.949 281.416 160.865 281.668 160.698C281.93 160.53 282.123 160.315 282.249 160.054H284.417C284.27 160.546 284.024 160.991 283.678 161.389C283.333 161.787 282.909 162.101 282.406 162.331C281.903 162.562 281.343 162.677 280.725 162.677ZM290.206 162.677C289.41 162.677 288.703 162.499 288.085 162.143C287.467 161.787 286.986 161.3 286.64 160.682C286.295 160.064 286.122 159.357 286.122 158.561C286.122 157.745 286.295 157.027 286.64 156.409C286.986 155.781 287.467 155.289 288.085 154.933C288.703 154.566 289.41 154.383 290.206 154.383C291.221 154.383 292.075 154.65 292.766 155.184C293.457 155.718 293.897 156.451 294.085 157.383H291.839C291.745 157.017 291.546 156.729 291.242 156.519C290.949 156.31 290.598 156.205 290.19 156.205C289.824 156.205 289.494 156.3 289.2 156.488C288.918 156.666 288.693 156.933 288.525 157.289C288.368 157.635 288.289 158.048 288.289 158.53C288.289 158.896 288.337 159.226 288.431 159.52C288.525 159.802 288.656 160.048 288.823 160.258C288.991 160.457 289.19 160.609 289.42 160.713C289.661 160.818 289.918 160.87 290.19 160.87C290.462 160.87 290.708 160.823 290.928 160.729C291.159 160.635 291.352 160.504 291.509 160.336C291.667 160.158 291.776 159.944 291.839 159.692H294.085C293.897 160.603 293.452 161.331 292.75 161.876C292.059 162.41 291.211 162.677 290.206 162.677ZM295.961 162.488V154.572H298.082V162.488H295.961ZM297.029 153.488C296.652 153.488 296.338 153.378 296.087 153.158C295.846 152.928 295.726 152.64 295.726 152.294C295.726 151.949 295.846 151.666 296.087 151.446C296.338 151.216 296.652 151.1 297.029 151.1C297.417 151.1 297.731 151.216 297.972 151.446C298.223 151.666 298.349 151.949 298.349 152.294C298.349 152.64 298.223 152.928 297.972 153.158C297.731 153.378 297.417 153.488 297.029 153.488ZM303.46 162.677C302.738 162.677 302.109 162.562 301.575 162.331C301.041 162.101 300.622 161.781 300.319 161.373C300.015 160.965 299.842 160.504 299.8 159.991H301.905C301.958 160.19 302.047 160.373 302.172 160.541C302.298 160.698 302.465 160.823 302.675 160.918C302.884 161.012 303.136 161.059 303.429 161.059C303.712 161.059 303.942 161.022 304.12 160.949C304.298 160.865 304.429 160.755 304.513 160.619C304.607 160.483 304.654 160.342 304.654 160.195C304.654 159.975 304.591 159.808 304.466 159.692C304.34 159.567 304.157 159.467 303.916 159.394C303.675 159.321 303.382 159.247 303.036 159.174C302.659 159.101 302.287 159.012 301.921 158.907C301.565 158.792 301.246 158.65 300.963 158.483C300.68 158.315 300.455 158.101 300.287 157.839C300.12 157.577 300.036 157.252 300.036 156.865C300.036 156.394 300.162 155.975 300.413 155.608C300.664 155.231 301.031 154.933 301.513 154.713C301.994 154.493 302.575 154.383 303.256 154.383C304.209 154.383 304.963 154.598 305.518 155.027C306.073 155.457 306.403 156.048 306.508 156.802H304.513C304.45 156.561 304.308 156.373 304.089 156.237C303.879 156.09 303.596 156.017 303.24 156.017C302.863 156.017 302.575 156.085 302.376 156.221C302.178 156.357 302.078 156.535 302.078 156.755C302.078 156.902 302.141 157.033 302.267 157.148C302.403 157.263 302.591 157.362 302.832 157.446C303.073 157.519 303.366 157.593 303.712 157.666C304.319 157.792 304.853 157.938 305.314 158.106C305.775 158.263 306.136 158.493 306.398 158.797C306.659 159.09 306.79 159.52 306.79 160.085C306.79 160.588 306.654 161.038 306.382 161.436C306.11 161.823 305.722 162.127 305.22 162.347C304.727 162.567 304.141 162.677 303.46 162.677ZM308.632 162.488V154.572H310.752V162.488H308.632ZM309.7 153.488C309.323 153.488 309.009 153.378 308.757 153.158C308.516 152.928 308.396 152.64 308.396 152.294C308.396 151.949 308.516 151.666 308.757 151.446C309.009 151.216 309.323 151.1 309.7 151.1C310.087 151.1 310.401 151.216 310.642 151.446C310.894 151.666 311.019 151.949 311.019 152.294C311.019 152.64 310.894 152.928 310.642 153.158C310.401 153.378 310.087 153.488 309.7 153.488ZM316.633 162.677C315.879 162.677 315.199 162.504 314.591 162.158C313.994 161.802 313.518 161.315 313.162 160.698C312.816 160.069 312.644 159.352 312.644 158.546C312.644 157.718 312.816 156.996 313.162 156.378C313.518 155.75 314 155.263 314.607 154.917C315.214 154.561 315.895 154.383 316.649 154.383C317.413 154.383 318.094 154.561 318.691 154.917C319.298 155.263 319.775 155.75 320.12 156.378C320.476 156.996 320.654 157.713 320.654 158.53C320.654 159.347 320.476 160.069 320.12 160.698C319.775 161.315 319.298 161.802 318.691 162.158C318.084 162.504 317.398 162.677 316.633 162.677ZM316.633 160.839C316.989 160.839 317.303 160.755 317.576 160.588C317.858 160.42 318.078 160.164 318.235 159.818C318.403 159.472 318.487 159.043 318.487 158.53C318.487 158.017 318.403 157.593 318.235 157.258C318.078 156.912 317.858 156.656 317.576 156.488C317.303 156.31 316.995 156.221 316.649 156.221C316.314 156.221 316.005 156.31 315.722 156.488C315.439 156.656 315.214 156.912 315.047 157.258C314.89 157.593 314.811 158.017 314.811 158.53C314.811 159.043 314.89 159.472 315.047 159.818C315.214 160.164 315.434 160.42 315.707 160.588C315.989 160.755 316.298 160.839 316.633 160.839ZM322.482 162.488V154.572H324.351L324.508 155.86C324.749 155.42 325.089 155.064 325.529 154.792C325.98 154.519 326.514 154.383 327.131 154.383C327.791 154.383 328.346 154.519 328.796 154.792C329.247 155.064 329.587 155.462 329.817 155.985C330.058 156.509 330.179 157.153 330.179 157.917V162.488H328.074V158.122C328.074 157.493 327.938 157.012 327.665 156.677C327.404 156.341 326.995 156.174 326.44 156.174C326.084 156.174 325.765 156.258 325.482 156.425C325.21 156.593 324.995 156.834 324.838 157.148C324.681 157.451 324.602 157.823 324.602 158.263V162.488H322.482Z" fill="white"/>
<g filter="url(#filter0_d_383_9291)">
<g filter="url(#filter1_d_383_9291)">
<path d="M324.978 215.147C324.978 234.478 309.308 250.148 289.977 250.148C270.647 250.148 254.977 234.478 254.977 215.147C254.977 195.817 270.647 180.146 289.977 180.146C309.308 180.146 324.978 195.817 324.978 215.147Z" fill="#6E58F1"/>
</g>
<path fill-rule="evenodd" clip-rule="evenodd" d="M289.977 248.398C308.341 248.398 323.228 233.511 323.228 215.147C323.228 196.783 308.341 181.897 289.977 181.897C271.613 181.897 256.727 196.783 256.727 215.147C256.727 233.511 271.613 248.398 289.977 248.398ZM289.977 250.148C309.308 250.148 324.978 234.478 324.978 215.147C324.978 195.817 309.308 180.146 289.977 180.146C270.647 180.146 254.977 195.817 254.977 215.147C254.977 234.478 270.647 250.148 289.977 250.148Z" fill="#ECEEFB"/>
<path d="M288.958 219.095C288.422 219.095 287.987 218.66 287.987 218.124V213.914C287.987 213.556 287.697 213.267 287.34 213.267C286.982 213.267 286.693 213.556 286.693 213.914V218.124C286.693 218.66 286.258 219.095 285.721 219.095C285.185 219.095 284.75 218.66 284.75 218.124V213.914C284.75 212.486 285.912 211.324 287.34 211.324C288.768 211.324 289.929 212.486 289.929 213.914V218.124C289.929 218.66 289.494 219.095 288.958 219.095Z" fill="white"/>
<path d="M288.956 217.152H285.717C285.181 217.152 284.746 216.717 284.746 216.18C284.746 215.644 285.181 215.209 285.717 215.209H288.956C289.492 215.209 289.927 215.644 289.927 216.18C289.927 216.717 289.492 217.152 288.956 217.152Z" fill="white"/>
<path d="M293.491 219.095C292.955 219.095 292.52 218.66 292.52 218.124V212.296C292.52 211.759 292.955 211.324 293.491 211.324C294.027 211.324 294.462 211.759 294.462 212.296V218.124C294.462 218.66 294.027 219.095 293.491 219.095Z" fill="white"/>
<path d="M305.466 211.493C305.466 208.457 303.125 205.925 300.034 205.364C300.034 205.343 300.04 205.321 300.04 205.3C300.038 202.193 297.328 199.668 293.994 199.668C292.458 199.668 291.02 200.2 289.924 201.141C288.829 200.2 287.391 199.668 285.855 199.668C282.521 199.668 279.811 202.193 279.811 205.298C279.811 205.319 279.817 205.341 279.817 205.362C276.724 205.925 274.383 208.457 274.383 211.493C274.383 213.22 275.135 214.829 276.442 215.995C275.98 216.9 275.741 217.894 275.741 218.926C275.741 221.562 277.338 223.917 279.811 225.065V225.121C279.811 228.226 282.523 230.751 285.855 230.751C287.391 230.751 288.829 230.219 289.924 229.279C291.02 230.219 292.458 230.751 293.994 230.751C297.328 230.751 300.038 228.226 300.038 225.121C300.038 225.104 300.038 225.084 300.038 225.065C302.511 223.919 304.108 221.564 304.108 218.926C304.108 217.894 303.867 216.9 303.407 215.995C304.714 214.829 305.466 213.22 305.466 211.493ZM301.008 214.549C300.683 214.74 300.456 215.06 300.388 215.429C300.32 215.798 300.415 216.181 300.648 216.474C301.217 217.185 301.519 218.032 301.519 218.924C301.519 220.76 300.209 222.388 298.263 222.975C297.604 223.173 297.215 223.849 297.377 224.517C297.423 224.717 297.449 224.925 297.449 225.119C297.449 226.796 295.898 228.16 293.994 228.16C292.771 228.16 291.626 227.573 291.007 226.627C290.529 225.897 289.318 225.897 288.84 226.627C288.221 227.573 287.076 228.16 285.853 228.16C283.949 228.16 282.398 226.796 282.398 225.119C282.398 224.925 282.424 224.717 282.47 224.517C282.632 223.849 282.241 223.173 281.584 222.975C279.636 222.388 278.328 220.76 278.328 218.924C278.328 218.032 278.63 217.185 279.199 216.474C279.434 216.181 279.529 215.798 279.459 215.429C279.391 215.06 279.164 214.738 278.839 214.549C277.67 213.865 276.971 212.723 276.971 211.491C276.971 209.473 278.824 207.831 281.103 207.831C281.872 207.831 282.521 208.373 282.521 209.014C282.521 209.729 283.102 210.31 283.817 210.31C284.532 210.31 285.112 209.729 285.112 209.014C285.112 207.373 283.986 205.986 282.426 205.469C282.422 205.409 282.398 205.358 282.398 205.298C282.398 203.621 283.949 202.258 285.853 202.258C287.076 202.258 288.221 202.844 288.84 203.79C289.318 204.521 290.529 204.521 291.007 203.79C291.626 202.844 292.771 202.258 293.994 202.258C295.898 202.258 297.449 203.621 297.449 205.298C297.449 205.358 297.425 205.411 297.421 205.469C295.863 205.986 294.735 207.373 294.735 209.014C294.735 211.095 296.534 212.787 298.742 212.787C299.457 212.787 300.038 212.206 300.038 211.491C300.038 210.776 299.457 210.196 298.742 210.196C297.973 210.196 297.324 209.654 297.324 209.012C297.324 208.371 297.973 207.829 298.742 207.829C301.021 207.829 302.875 209.471 302.875 211.489C302.877 212.723 302.177 213.867 301.008 214.549Z" fill="white"/>
</g>
</g>
<g clip-path="url(#clip1_383_9291)">
<rect x="2" y="7" width="180" height="200" rx="12.9492" fill="white"/>
<rect x="2" y="7" width="180" height="200" rx="12.9492" fill="url(#paint0_linear_383_9291)" fill-opacity="0.3"/>
<path d="M53.2995 44.3619C52.1902 44.3619 51.2302 44.1219 50.4195 43.6419C49.6195 43.1513 49.0008 42.4739 48.5635 41.6099C48.1368 40.7353 47.9235 39.7273 47.9235 38.5859C47.9235 37.4339 48.1368 36.4259 48.5635 35.5619C49.0008 34.6873 49.6195 34.0046 50.4195 33.5139C51.2302 33.0233 52.1902 32.7779 53.2995 32.7779C54.6328 32.7779 55.7208 33.1086 56.5635 33.7699C57.4062 34.4206 57.9395 35.3433 58.1635 36.5379H56.0515C55.9022 35.9086 55.5982 35.4126 55.1395 35.0499C54.6808 34.6873 54.0622 34.5059 53.2835 34.5059C52.5795 34.5059 51.9715 34.6713 51.4595 35.0019C50.9582 35.3219 50.5688 35.7913 50.2915 36.4099C50.0248 37.0179 49.8915 37.7433 49.8915 38.5859C49.8915 39.4286 50.0248 40.1539 50.2915 40.7619C50.5688 41.3593 50.9582 41.8233 51.4595 42.1539C51.9715 42.4739 52.5795 42.6339 53.2835 42.6339C54.0622 42.6339 54.6808 42.4686 55.1395 42.1379C55.5982 41.7966 55.9022 41.3273 56.0515 40.7299H58.1635C57.9502 41.8606 57.4168 42.7513 56.5635 43.4019C55.7208 44.0419 54.6328 44.3619 53.2995 44.3619ZM63.7383 44.3619C62.9703 44.3619 62.2769 44.1859 61.6583 43.8339C61.0503 43.4713 60.5703 42.9753 60.2183 42.3459C59.8769 41.7059 59.7063 40.9753 59.7063 40.1539C59.7063 39.3113 59.8823 38.5753 60.2343 37.9459C60.5863 37.3059 61.0663 36.8099 61.6743 36.4579C62.2929 36.0953 62.9863 35.9139 63.7543 35.9139C64.5223 35.9139 65.2103 36.0953 65.8183 36.4579C66.4369 36.8099 66.9169 37.3006 67.2583 37.9299C67.6103 38.5593 67.7863 39.2953 67.7863 40.1379C67.7863 40.9806 67.6103 41.7166 67.2583 42.3459C66.9063 42.9753 66.4209 43.4713 65.8023 43.8339C65.1943 44.1859 64.5063 44.3619 63.7383 44.3619ZM63.7383 42.7139C64.1223 42.7139 64.4689 42.6179 64.7783 42.4259C65.0983 42.2339 65.3543 41.9459 65.5463 41.5619C65.7383 41.1779 65.8343 40.7033 65.8343 40.1379C65.8343 39.5726 65.7383 39.1033 65.5463 38.7299C65.3649 38.3459 65.1143 38.0579 64.7943 37.8659C64.4849 37.6739 64.1383 37.5779 63.7543 37.5779C63.3809 37.5779 63.0343 37.6739 62.7143 37.8659C62.3943 38.0579 62.1383 38.3459 61.9463 38.7299C61.7543 39.1033 61.6583 39.5726 61.6583 40.1379C61.6583 40.7033 61.7543 41.1779 61.9463 41.5619C62.1383 41.9459 62.3889 42.2339 62.6983 42.4259C63.0183 42.6179 63.3649 42.7139 63.7383 42.7139ZM69.6658 44.1699V32.6499H71.5858V44.1699H69.6658ZM77.3123 44.3619C76.5656 44.3619 75.8989 44.1806 75.3123 43.8179C74.7256 43.4553 74.2669 42.9539 73.9363 42.3139C73.6163 41.6739 73.4563 40.9486 73.4563 40.1379C73.4563 39.3273 73.6216 38.6073 73.9523 37.9779C74.2829 37.3379 74.7416 36.8366 75.3283 36.4739C75.9256 36.1006 76.5976 35.9139 77.3443 35.9139C77.9523 35.9139 78.4803 36.0313 78.9283 36.2659C79.3869 36.4899 79.7496 36.8099 80.0163 37.2259V32.6499H81.9363V44.1699H80.2083L80.0163 43.0019C79.8456 43.2366 79.6376 43.4606 79.3923 43.6739C79.1469 43.8766 78.8536 44.0419 78.5123 44.1699C78.1709 44.2979 77.7709 44.3619 77.3123 44.3619ZM77.7123 42.6979C78.1709 42.6979 78.5763 42.5913 78.9283 42.3779C79.2803 42.1539 79.5523 41.8499 79.7443 41.4659C79.9363 41.0819 80.0323 40.6393 80.0323 40.1379C80.0323 39.6366 79.9363 39.1939 79.7443 38.8099C79.5523 38.4259 79.2803 38.1273 78.9283 37.9139C78.5763 37.7006 78.1709 37.5939 77.7123 37.5939C77.2749 37.5939 76.8803 37.7006 76.5283 37.9139C76.1763 38.1273 75.8989 38.4259 75.6963 38.8099C75.5043 39.1939 75.4083 39.6366 75.4083 40.1379C75.4083 40.6393 75.5043 41.0819 75.6963 41.4659C75.8989 41.8499 76.1763 42.1539 76.5283 42.3779C76.8803 42.5913 77.2749 42.6979 77.7123 42.6979ZM88.0423 44.1699V32.9699H95.2743V34.5219H89.9623V37.7379H94.7943V39.2579H89.9623V42.6179H95.2743V44.1699H88.0423ZM97.2283 44.1699V36.1059H98.9243L99.0843 37.2099C99.3403 36.8046 99.6763 36.4899 100.092 36.2659C100.519 36.0313 101.004 35.9139 101.548 35.9139C101.954 35.9139 102.316 35.9673 102.636 36.0739C102.967 36.1806 103.255 36.3406 103.5 36.5539C103.756 36.7673 103.964 37.0339 104.124 37.3539C104.423 36.9059 104.812 36.5539 105.292 36.2979C105.772 36.0419 106.295 35.9139 106.86 35.9139C107.532 35.9139 108.103 36.0526 108.572 36.3299C109.042 36.5966 109.399 36.9966 109.644 37.5299C109.89 38.0526 110.012 38.6979 110.012 39.4659V44.1699H108.108V39.6579C108.108 38.9753 107.97 38.4526 107.692 38.0899C107.415 37.7273 107.004 37.5459 106.46 37.5459C106.087 37.5459 105.756 37.6366 105.468 37.8179C105.191 37.9993 104.972 38.2659 104.812 38.6179C104.652 38.9593 104.572 39.3806 104.572 39.8819V44.1699H102.668V39.6579C102.668 38.9753 102.53 38.4526 102.252 38.0899C101.975 37.7273 101.559 37.5459 101.004 37.5459C100.652 37.5459 100.332 37.6366 100.044 37.8179C99.7669 37.9993 99.5483 38.2659 99.3883 38.6179C99.2283 38.9593 99.1483 39.3806 99.1483 39.8819V44.1699H97.2283ZM114.729 44.3619C114.067 44.3619 113.518 44.2499 113.081 44.0259C112.643 43.8019 112.318 43.5033 112.105 43.1299C111.891 42.7566 111.785 42.3513 111.785 41.9139C111.785 41.4019 111.913 40.9593 112.169 40.5859C112.435 40.2126 112.825 39.9246 113.337 39.7219C113.849 39.5086 114.478 39.4019 115.225 39.4019H117.257C117.257 38.9753 117.198 38.6233 117.081 38.3459C116.963 38.0579 116.782 37.8446 116.537 37.7059C116.291 37.5673 115.977 37.4979 115.593 37.4979C115.155 37.4979 114.782 37.5993 114.473 37.8019C114.163 37.9939 113.971 38.2926 113.897 38.6979H112.009C112.073 38.1219 112.265 37.6313 112.585 37.2259C112.905 36.8099 113.326 36.4899 113.849 36.2659C114.382 36.0313 114.963 35.9139 115.593 35.9139C116.35 35.9139 116.995 36.0473 117.529 36.3139C118.062 36.5699 118.467 36.9433 118.745 37.4339C119.033 37.9139 119.177 38.4953 119.177 39.1779V44.1699H117.545L117.353 42.8739C117.246 43.0873 117.107 43.2846 116.937 43.4659C116.777 43.6473 116.59 43.8073 116.377 43.9459C116.163 44.0739 115.918 44.1753 115.641 44.2499C115.374 44.3246 115.07 44.3619 114.729 44.3619ZM115.161 42.8419C115.47 42.8419 115.742 42.7886 115.977 42.6819C116.222 42.5646 116.43 42.4046 116.601 42.2019C116.782 41.9886 116.921 41.7539 117.017 41.4979C117.113 41.2419 117.177 40.9699 117.209 40.6819V40.6499H115.433C115.059 40.6499 114.75 40.6979 114.505 40.7939C114.259 40.8793 114.083 41.0073 113.977 41.1779C113.87 41.3486 113.817 41.5459 113.817 41.7699C113.817 41.9939 113.87 42.1859 113.977 42.3459C114.083 42.5059 114.238 42.6286 114.441 42.7139C114.643 42.7993 114.883 42.8419 115.161 42.8419ZM121.308 44.1699V36.1059H123.228V44.1699H121.308ZM122.268 34.8259C121.916 34.8259 121.623 34.7193 121.388 34.5059C121.164 34.2819 121.052 34.0099 121.052 33.6899C121.052 33.3593 121.164 33.0926 121.388 32.8899C121.623 32.6766 121.916 32.5699 122.268 32.5699C122.62 32.5699 122.908 32.6766 123.132 32.8899C123.367 33.0926 123.484 33.3593 123.484 33.6899C123.484 34.0099 123.367 34.2819 123.132 34.5059C122.908 34.7193 122.62 34.8259 122.268 34.8259ZM125.447 44.1699V32.6499H127.367V44.1699H125.447ZM132.726 44.3619C132.011 44.3619 131.387 44.2499 130.854 44.0259C130.331 43.7913 129.915 43.4713 129.606 43.0659C129.307 42.6499 129.131 42.1753 129.078 41.6419H130.998C131.051 41.8659 131.147 42.0739 131.286 42.2659C131.424 42.4473 131.611 42.5913 131.846 42.6979C132.091 42.8046 132.379 42.8579 132.71 42.8579C133.03 42.8579 133.291 42.8153 133.494 42.7299C133.696 42.6339 133.846 42.5113 133.942 42.3619C134.038 42.2126 134.086 42.0526 134.086 41.8819C134.086 41.6259 134.016 41.4286 133.878 41.2899C133.739 41.1513 133.536 41.0446 133.27 40.9699C133.014 40.8846 132.704 40.8046 132.342 40.7299C131.958 40.6553 131.584 40.5646 131.222 40.4579C130.87 40.3406 130.55 40.1966 130.262 40.0259C129.984 39.8553 129.76 39.6366 129.59 39.3699C129.43 39.1033 129.35 38.7779 129.35 38.3939C129.35 37.9246 129.472 37.5033 129.718 37.1299C129.974 36.7566 130.336 36.4633 130.806 36.2499C131.286 36.0259 131.856 35.9139 132.518 35.9139C133.456 35.9139 134.203 36.1326 134.758 36.5699C135.323 36.9966 135.654 37.5993 135.75 38.3779H133.926C133.872 38.0793 133.723 37.8499 133.478 37.6899C133.232 37.5193 132.907 37.4339 132.502 37.4339C132.086 37.4339 131.766 37.5139 131.542 37.6739C131.328 37.8233 131.222 38.0259 131.222 38.2819C131.222 38.4419 131.286 38.5913 131.414 38.7299C131.552 38.8579 131.75 38.9699 132.006 39.0659C132.262 39.1513 132.576 39.2366 132.95 39.3219C133.547 39.4393 134.075 39.5779 134.534 39.7379C134.992 39.8979 135.355 40.1326 135.622 40.4419C135.888 40.7513 136.022 41.1886 136.022 41.7539C136.032 42.2659 135.899 42.7193 135.622 43.1139C135.355 43.5086 134.976 43.8179 134.486 44.0419C133.995 44.2553 133.408 44.3619 132.726 44.3619ZM57.5891 68.1699V56.9699H59.5091V68.1699H57.5891ZM61.697 68.1699V60.1059H63.393L63.537 61.4499C63.7823 60.9806 64.1343 60.6073 64.593 60.3299C65.0517 60.0526 65.5957 59.9139 66.225 59.9139C66.8757 59.9139 67.4303 60.0526 67.889 60.3299C68.3477 60.5966 68.6997 60.9913 68.945 61.5139C69.201 62.0366 69.329 62.6873 69.329 63.4659V68.1699H67.409V63.6419C67.409 62.9699 67.2597 62.4526 66.961 62.0899C66.6623 61.7273 66.2197 61.5459 65.633 61.5459C65.249 61.5459 64.9023 61.6366 64.593 61.8179C64.2943 61.9993 64.0543 62.2659 63.873 62.6179C63.7023 62.9593 63.617 63.3753 63.617 63.8659V68.1699H61.697ZM75.1773 68.3619C74.3879 68.3619 73.6786 68.1859 73.0493 67.8339C72.4306 67.4713 71.9453 66.9753 71.5933 66.3459C71.2519 65.7059 71.0813 64.9806 71.0813 64.1699C71.0813 63.3273 71.2519 62.5913 71.5933 61.9619C71.9453 61.3219 72.4306 60.8206 73.0493 60.4579C73.6786 60.0953 74.3933 59.9139 75.1933 59.9139C76.1959 59.9139 77.0386 60.1806 77.7213 60.7139C78.4039 61.2366 78.8413 61.9566 79.0333 62.8739H77.0173C76.9106 62.4686 76.6866 62.1486 76.3453 61.9139C76.0146 61.6793 75.6199 61.5619 75.1613 61.5619C74.7666 61.5619 74.4039 61.6633 74.0733 61.8659C73.7533 62.0686 73.4973 62.3619 73.3053 62.7459C73.1239 63.1299 73.0333 63.5939 73.0333 64.1379C73.0333 64.5539 73.0866 64.9219 73.1933 65.2419C73.2999 65.5619 73.4493 65.8339 73.6413 66.0579C73.8439 66.2713 74.0733 66.4366 74.3293 66.5539C74.5853 66.6713 74.8626 66.7299 75.1613 66.7299C75.4706 66.7299 75.7479 66.6819 75.9933 66.5859C76.2493 66.4793 76.4626 66.3246 76.6333 66.1219C76.8146 65.9193 76.9426 65.6793 77.0173 65.4019H79.0333C78.8413 66.2979 78.4039 67.0179 77.7213 67.5619C77.0386 68.0953 76.1906 68.3619 75.1773 68.3619ZM84.6445 68.3619C83.8765 68.3619 83.1832 68.1859 82.5645 67.8339C81.9565 67.4713 81.4765 66.9753 81.1245 66.3459C80.7832 65.7059 80.6125 64.9753 80.6125 64.1539C80.6125 63.3113 80.7885 62.5753 81.1405 61.9459C81.4925 61.3059 81.9725 60.8099 82.5805 60.4579C83.1992 60.0953 83.8925 59.9139 84.6605 59.9139C85.4285 59.9139 86.1165 60.0953 86.7245 60.4579C87.3432 60.8099 87.8232 61.3006 88.1645 61.9299C88.5165 62.5593 88.6925 63.2953 88.6925 64.1379C88.6925 64.9806 88.5165 65.7166 88.1645 66.3459C87.8125 66.9753 87.3272 67.4713 86.7085 67.8339C86.1005 68.1859 85.4125 68.3619 84.6445 68.3619ZM84.6445 66.7139C85.0285 66.7139 85.3752 66.6179 85.6845 66.4259C86.0045 66.2339 86.2605 65.9459 86.4525 65.5619C86.6445 65.1779 86.7405 64.7033 86.7405 64.1379C86.7405 63.5726 86.6445 63.1033 86.4525 62.7299C86.2712 62.3459 86.0205 62.0579 85.7005 61.8659C85.3912 61.6739 85.0445 61.5779 84.6605 61.5779C84.2872 61.5779 83.9405 61.6739 83.6205 61.8659C83.3005 62.0579 83.0445 62.3459 82.8525 62.7299C82.6605 63.1033 82.5645 63.5726 82.5645 64.1379C82.5645 64.7033 82.6605 65.1779 82.8525 65.5619C83.0445 65.9459 83.2952 66.2339 83.6045 66.4259C83.9245 66.6179 84.2712 66.7139 84.6445 66.7139ZM90.572 68.1699V60.1059H92.268L92.428 61.2099C92.684 60.8046 93.02 60.4899 93.436 60.2659C93.8627 60.0313 94.348 59.9139 94.892 59.9139C95.2973 59.9139 95.66 59.9673 95.98 60.0739C96.3107 60.1806 96.5987 60.3406 96.844 60.5539C97.1 60.7673 97.308 61.0339 97.468 61.3539C97.7667 60.9059 98.156 60.5539 98.636 60.2979C99.116 60.0419 99.6387 59.9139 100.204 59.9139C100.876 59.9139 101.447 60.0526 101.916 60.3299C102.385 60.5966 102.743 60.9966 102.988 61.5299C103.233 62.0526 103.356 62.6979 103.356 63.4659V68.1699H101.452V63.6579C101.452 62.9753 101.313 62.4526 101.036 62.0899C100.759 61.7273 100.348 61.5459 99.804 61.5459C99.4307 61.5459 99.1 61.6366 98.812 61.8179C98.5347 61.9993 98.316 62.2659 98.156 62.6179C97.996 62.9593 97.916 63.3806 97.916 63.8819V68.1699H96.012V63.6579C96.012 62.9753 95.8733 62.4526 95.596 62.0899C95.3187 61.7273 94.9027 61.5459 94.348 61.5459C93.996 61.5459 93.676 61.6366 93.388 61.8179C93.1107 61.9993 92.892 62.2659 92.732 62.6179C92.572 62.9593 92.492 63.3806 92.492 63.8819V68.1699H90.572ZM105.465 68.1699V60.1059H107.385V68.1699H105.465ZM106.424 58.8259C106.073 58.8259 105.779 58.7193 105.545 58.5059C105.321 58.2819 105.209 58.0099 105.209 57.6899C105.209 57.3593 105.321 57.0926 105.545 56.8899C105.779 56.6766 106.073 56.5699 106.424 56.5699C106.777 56.5699 107.065 56.6766 107.289 56.8899C107.523 57.0926 107.641 57.3593 107.641 57.6899C107.641 58.0099 107.523 58.2819 107.289 58.5059C107.065 58.7193 106.777 58.8259 106.424 58.8259ZM109.603 68.1699V60.1059H111.299L111.443 61.4499C111.689 60.9806 112.041 60.6073 112.499 60.3299C112.958 60.0526 113.502 59.9139 114.131 59.9139C114.782 59.9139 115.337 60.0526 115.795 60.3299C116.254 60.5966 116.606 60.9913 116.851 61.5139C117.107 62.0366 117.235 62.6873 117.235 63.4659V68.1699H115.315V63.6419C115.315 62.9699 115.166 62.4526 114.867 62.0899C114.569 61.7273 114.126 61.5459 113.539 61.5459C113.155 61.5459 112.809 61.6366 112.499 61.8179C112.201 61.9993 111.961 62.2659 111.779 62.6179C111.609 62.9593 111.523 63.3753 111.523 63.8659V68.1699H109.603ZM122.652 71.8819C121.894 71.8819 121.228 71.7859 120.652 71.5939C120.086 71.4126 119.644 71.1299 119.324 70.7459C119.014 70.3726 118.86 69.9033 118.86 69.3379C118.86 69.0073 118.94 68.6819 119.1 68.3619C119.27 68.0526 119.521 67.7646 119.852 67.4979C120.193 67.2206 120.625 66.9806 121.148 66.7779L121.996 67.7059C121.484 67.8873 121.126 68.1059 120.924 68.3619C120.721 68.6179 120.62 68.8793 120.62 69.1459C120.62 69.4233 120.705 69.6526 120.876 69.8339C121.057 70.0259 121.297 70.1699 121.596 70.2659C121.905 70.3619 122.252 70.4099 122.636 70.4099C123.009 70.4099 123.334 70.3566 123.612 70.2499C123.889 70.1539 124.102 70.0153 124.252 69.8339C124.412 69.6526 124.492 69.4339 124.492 69.1779C124.492 68.8579 124.38 68.5966 124.156 68.3939C123.932 68.2019 123.489 68.0846 122.828 68.0419C122.262 67.9993 121.766 67.9406 121.34 67.8659C120.913 67.7806 120.545 67.6846 120.236 67.5779C119.937 67.4713 119.681 67.3539 119.468 67.2259C119.254 67.0873 119.078 66.9486 118.94 66.8099V66.4419L120.62 64.6819L122.044 65.1459L120.156 66.9859L120.652 66.0579C120.758 66.1326 120.865 66.2019 120.972 66.2659C121.089 66.3299 121.233 66.3886 121.404 66.4419C121.585 66.4846 121.82 66.5273 122.108 66.5699C122.396 66.6126 122.769 66.6553 123.228 66.6979C123.942 66.7513 124.524 66.8793 124.972 67.0819C125.42 67.2846 125.75 67.5566 125.964 67.8979C126.177 68.2393 126.284 68.6499 126.284 69.1299C126.284 69.5993 126.15 70.0419 125.884 70.4579C125.628 70.8739 125.233 71.2153 124.7 71.4819C124.166 71.7486 123.484 71.8819 122.652 71.8819ZM122.652 65.7539C121.98 65.7539 121.398 65.6259 120.908 65.3699C120.428 65.1033 120.06 64.7513 119.804 64.3139C119.548 63.8659 119.42 63.3753 119.42 62.8419C119.42 62.2979 119.548 61.8073 119.804 61.3699C120.06 60.9326 120.428 60.5806 120.908 60.3139C121.398 60.0473 121.98 59.9139 122.652 59.9139C123.324 59.9139 123.9 60.0473 124.38 60.3139C124.86 60.5806 125.228 60.9326 125.484 61.3699C125.74 61.8073 125.868 62.2979 125.868 62.8419C125.868 63.3753 125.74 63.8659 125.484 64.3139C125.228 64.7513 124.86 65.1033 124.38 65.3699C123.9 65.6259 123.324 65.7539 122.652 65.7539ZM122.652 64.2659C123.11 64.2659 123.478 64.1433 123.756 63.8979C124.033 63.6526 124.172 63.3006 124.172 62.8419C124.172 62.3833 124.033 62.0366 123.756 61.8019C123.478 61.5566 123.11 61.4339 122.652 61.4339C122.193 61.4339 121.82 61.5566 121.532 61.8019C121.244 62.0366 121.1 62.3833 121.1 62.8419C121.1 63.3006 121.244 63.6526 121.532 63.8979C121.82 64.1433 122.193 64.2659 122.652 64.2659ZM123.98 61.5139L123.612 60.1059H126.924V61.3059L123.98 61.5139Z" fill="#000D66"/>
<g filter="url(#filter2_ddd_383_9291)">
<path d="M128.741 124.103C128.741 144.146 112.492 160.395 92.4485 160.395C72.4048 160.395 56.1562 144.146 56.1562 124.103C56.1562 104.059 72.4048 87.8105 92.4485 87.8105C112.492 87.8105 128.741 104.059 128.741 124.103Z" fill="white"/>
</g>
<path fill-rule="evenodd" clip-rule="evenodd" d="M92.4485 158.58C111.49 158.58 126.926 143.144 126.926 124.103C126.926 105.061 111.49 89.6252 92.4485 89.6252C73.407 89.6252 57.9709 105.061 57.9709 124.103C57.9709 143.144 73.407 158.58 92.4485 158.58ZM92.4485 160.395C112.492 160.395 128.741 144.146 128.741 124.103C128.741 104.059 112.492 87.8105 92.4485 87.8105C72.4048 87.8105 56.1562 104.059 56.1562 124.103C56.1562 144.146 72.4048 160.395 92.4485 160.395Z" fill="#ECEEFB"/>
<path d="M69.6953 115.034C69.6953 113.029 71.3202 111.404 73.3245 111.404H111.188C113.192 111.404 114.817 113.029 114.817 115.034V138.623C114.817 140.628 113.192 142.253 111.188 142.253H73.3245C71.3202 142.253 69.6953 140.628 69.6953 138.623V115.034Z" fill="#6E58F1"/>
<mask id="mask0_383_9291" style="mask-type:alpha" maskUnits="userSpaceOnUse" x="69" y="111" width="46" height="32">
<path d="M69.6953 115.034C69.6953 113.029 71.3202 111.404 73.3245 111.404H111.188C113.192 111.404 114.817 113.029 114.817 115.034V138.623C114.817 140.628 113.192 142.253 111.188 142.253H73.3245C71.3202 142.253 69.6953 140.628 69.6953 138.623V115.034Z" fill="#4285F4"/>
</mask>
<g mask="url(#mask0_383_9291)">
<path d="M69.6953 111.404H114.817L94.7286 130.098C93.3354 131.394 91.1772 131.394 89.784 130.098L69.6953 111.404Z" fill="#917EFF"/>
</g>
<g filter="url(#filter3_ddd_383_9291)">
<path d="M62.0162 161.219C62.0162 170.261 54.6865 177.59 45.6448 177.59C36.6032 177.59 29.2734 170.261 29.2734 161.219C29.2734 152.177 36.6032 144.848 45.6448 144.848C54.6865 144.848 62.0162 152.177 62.0162 161.219Z" fill="white"/>
</g>
<path fill-rule="evenodd" clip-rule="evenodd" d="M45.6448 176.772C54.2344 176.772 61.1977 169.809 61.1977 161.219C61.1977 152.629 54.2344 145.666 45.6448 145.666C37.0552 145.666 30.092 152.629 30.092 161.219C30.092 169.809 37.0552 176.772 45.6448 176.772ZM45.6448 177.59C54.6865 177.59 62.0162 170.261 62.0162 161.219C62.0162 152.177 54.6865 144.848 45.6448 144.848C36.6032 144.848 29.2734 152.177 29.2734 161.219C29.2734 170.261 36.6032 177.59 45.6448 177.59Z" fill="#ECEEFB"/>
<path d="M35.3867 157.127C35.3867 156.223 36.1197 155.49 37.0239 155.49H54.1041C55.0083 155.49 55.7412 156.223 55.7412 157.127V167.769C55.7412 168.673 55.0083 169.406 54.1041 169.406H37.0239C36.1197 169.406 35.3867 168.673 35.3867 167.769V157.127Z" fill="#6E58F1"/>
<mask id="mask1_383_9291" style="mask-type:alpha" maskUnits="userSpaceOnUse" x="35" y="155" width="21" height="15">
<path d="M35.3887 157.127C35.3887 156.223 36.1216 155.49 37.0258 155.49H54.106C55.0102 155.49 55.7432 156.223 55.7432 157.127V167.769C55.7432 168.673 55.0102 169.406 54.106 169.406H37.0258C36.1216 169.406 35.3887 168.673 35.3887 167.769V157.127Z" fill="#4285F4"/>
</mask>
<g mask="url(#mask1_383_9291)">
<path d="M35.3887 155.49H55.7432L46.6812 163.923C46.0527 164.508 45.0792 164.508 44.4507 163.923L35.3887 155.49Z" fill="#917EFF"/>
</g>
<g filter="url(#filter4_ddd_383_9291)">
<path d="M163.252 167.48C163.252 179.485 153.52 189.217 141.515 189.217C129.51 189.217 119.777 179.485 119.777 167.48C119.777 155.474 129.51 145.742 141.515 145.742C153.52 145.742 163.252 155.474 163.252 167.48Z" fill="white"/>
</g>
<path fill-rule="evenodd" clip-rule="evenodd" d="M141.515 188.13C152.92 188.13 162.166 178.885 162.166 167.48C162.166 156.075 152.92 146.829 141.515 146.829C130.11 146.829 120.864 156.075 120.864 167.48C120.864 178.885 130.11 188.13 141.515 188.13ZM141.515 189.217C153.52 189.217 163.252 179.485 163.252 167.48C163.252 155.474 153.52 145.742 141.515 145.742C129.51 145.742 119.777 155.474 119.777 167.48C119.777 179.485 129.51 189.217 141.515 189.217Z" fill="#ECEEFB"/>
<path d="M127.893 162.049C127.893 160.848 128.866 159.875 130.066 159.875H152.745C153.946 159.875 154.919 160.848 154.919 162.049V176.178C154.919 177.379 153.946 178.352 152.745 178.352H130.066C128.866 178.352 127.893 177.379 127.893 176.178V162.049Z" fill="#6E58F1"/>
<mask id="mask2_383_9291" style="mask-type:alpha" maskUnits="userSpaceOnUse" x="127" y="159" width="28" height="20">
<path d="M127.895 162.049C127.895 160.848 128.868 159.875 130.068 159.875H152.747C153.948 159.875 154.921 160.848 154.921 162.049V176.178C154.921 177.379 153.948 178.352 152.747 178.352H130.068C128.868 178.352 127.895 177.379 127.895 176.178V162.049Z" fill="#4285F4"/>
</mask>
<g mask="url(#mask2_383_9291)">
<path d="M127.895 159.875H154.921L142.888 171.072C142.054 171.848 140.761 171.848 139.927 171.072L127.895 159.875Z" fill="#917EFF"/>
</g>
</g>
<rect x="1.09151" y="6.09151" width="181.817" height="201.817" rx="13.8577" stroke="white" stroke-width="1.81698"/>
<g clip-path="url(#clip2_383_9291)">
<rect x="398" y="183" width="180" height="200" rx="12.9492" fill="white"/>
<rect x="398" y="183" width="180" height="200" rx="12.9492" fill="url(#paint1_linear_383_9291)" fill-opacity="0.3"/>
<path d="M449.88 217.026C449.07 217.026 448.35 216.882 447.72 216.594C447.091 216.306 446.6 215.895 446.248 215.362C445.896 214.829 445.715 214.194 445.704 213.458H447.736C447.736 213.831 447.822 214.167 447.992 214.466C448.174 214.754 448.419 214.983 448.728 215.154C449.048 215.325 449.432 215.41 449.88 215.41C450.264 215.41 450.595 215.351 450.872 215.234C451.16 215.106 451.379 214.93 451.528 214.706C451.688 214.471 451.768 214.199 451.768 213.89C451.768 213.538 451.683 213.25 451.512 213.026C451.352 212.791 451.128 212.594 450.84 212.434C450.552 212.274 450.222 212.135 449.848 212.018C449.475 211.89 449.08 211.757 448.664 211.618C447.779 211.319 447.112 210.941 446.664 210.482C446.216 210.013 445.992 209.389 445.992 208.61C445.992 207.959 446.147 207.399 446.456 206.93C446.766 206.461 447.198 206.098 447.752 205.842C448.318 205.575 448.968 205.442 449.704 205.442C450.451 205.442 451.102 205.575 451.656 205.842C452.222 206.109 452.664 206.482 452.984 206.962C453.315 207.431 453.486 207.997 453.496 208.658H451.448C451.438 208.381 451.363 208.125 451.224 207.89C451.086 207.645 450.883 207.447 450.616 207.298C450.36 207.138 450.046 207.058 449.672 207.058C449.352 207.047 449.064 207.101 448.808 207.218C448.563 207.325 448.366 207.485 448.216 207.698C448.078 207.901 448.008 208.157 448.008 208.466C448.008 208.765 448.072 209.015 448.2 209.218C448.339 209.41 448.536 209.575 448.792 209.714C449.048 209.842 449.347 209.965 449.688 210.082C450.03 210.199 450.403 210.327 450.808 210.466C451.363 210.647 451.864 210.871 452.312 211.138C452.771 211.394 453.134 211.73 453.4 212.146C453.667 212.562 453.8 213.101 453.8 213.762C453.8 214.338 453.651 214.877 453.352 215.378C453.054 215.869 452.616 216.269 452.04 216.578C451.464 216.877 450.744 217.026 449.88 217.026ZM455.603 216.834V208.77H457.299L457.459 209.874C457.715 209.469 458.051 209.154 458.467 208.93C458.894 208.695 459.379 208.578 459.923 208.578C460.329 208.578 460.691 208.631 461.011 208.738C461.342 208.845 461.63 209.005 461.875 209.218C462.131 209.431 462.339 209.698 462.499 210.018C462.798 209.57 463.187 209.218 463.667 208.962C464.147 208.706 464.67 208.578 465.235 208.578C465.907 208.578 466.478 208.717 466.947 208.994C467.417 209.261 467.774 209.661 468.019 210.194C468.265 210.717 468.387 211.362 468.387 212.13V216.834H466.483V212.322C466.483 211.639 466.345 211.117 466.067 210.754C465.79 210.391 465.379 210.21 464.835 210.21C464.462 210.21 464.131 210.301 463.843 210.482C463.566 210.663 463.347 210.93 463.187 211.282C463.027 211.623 462.947 212.045 462.947 212.546V216.834H461.043V212.322C461.043 211.639 460.905 211.117 460.627 210.754C460.35 210.391 459.934 210.21 459.379 210.21C459.027 210.21 458.707 210.301 458.419 210.482C458.142 210.663 457.923 210.93 457.763 211.282C457.603 211.623 457.523 212.045 457.523 212.546V216.834H455.603ZM473.104 217.026C472.442 217.026 471.893 216.914 471.456 216.69C471.018 216.466 470.693 216.167 470.48 215.794C470.266 215.421 470.16 215.015 470.16 214.578C470.16 214.066 470.288 213.623 470.544 213.25C470.81 212.877 471.2 212.589 471.712 212.386C472.224 212.173 472.853 212.066 473.6 212.066H475.632C475.632 211.639 475.573 211.287 475.456 211.01C475.338 210.722 475.157 210.509 474.912 210.37C474.666 210.231 474.352 210.162 473.968 210.162C473.53 210.162 473.157 210.263 472.848 210.466C472.538 210.658 472.346 210.957 472.272 211.362H470.384C470.448 210.786 470.64 210.295 470.96 209.89C471.28 209.474 471.701 209.154 472.224 208.93C472.757 208.695 473.338 208.578 473.968 208.578C474.725 208.578 475.37 208.711 475.904 208.978C476.437 209.234 476.842 209.607 477.12 210.098C477.408 210.578 477.552 211.159 477.552 211.842V216.834H475.92L475.728 215.538C475.621 215.751 475.482 215.949 475.312 216.13C475.152 216.311 474.965 216.471 474.752 216.61C474.538 216.738 474.293 216.839 474.016 216.914C473.749 216.989 473.445 217.026 473.104 217.026ZM473.536 215.506C473.845 215.506 474.117 215.453 474.352 215.346C474.597 215.229 474.805 215.069 474.976 214.866C475.157 214.653 475.296 214.418 475.392 214.162C475.488 213.906 475.552 213.634 475.584 213.346V213.314H473.808C473.434 213.314 473.125 213.362 472.88 213.458C472.634 213.543 472.458 213.671 472.352 213.842C472.245 214.013 472.192 214.21 472.192 214.434C472.192 214.658 472.245 214.85 472.352 215.01C472.458 215.17 472.613 215.293 472.816 215.378C473.018 215.463 473.258 215.506 473.536 215.506ZM479.603 216.834V208.77H481.315L481.491 210.274C481.683 209.922 481.923 209.623 482.211 209.378C482.499 209.122 482.835 208.925 483.219 208.786C483.614 208.647 484.046 208.578 484.515 208.578V210.61H483.843C483.523 210.61 483.219 210.653 482.931 210.738C482.643 210.813 482.393 210.941 482.179 211.122C481.977 211.293 481.817 211.533 481.699 211.842C481.582 212.141 481.523 212.519 481.523 212.978V216.834H479.603ZM489.467 216.834C488.923 216.834 488.448 216.749 488.043 216.578C487.648 216.407 487.339 216.125 487.115 215.73C486.891 215.335 486.779 214.802 486.779 214.13V210.386H485.403V208.77H486.779L487.003 206.642H488.699V208.77H490.891V210.386H488.699V214.13C488.699 214.535 488.784 214.818 488.955 214.978C489.136 215.127 489.435 215.202 489.851 215.202H490.843V216.834H489.467ZM500.427 217.026C499.617 217.026 498.897 216.882 498.267 216.594C497.638 216.306 497.147 215.895 496.795 215.362C496.443 214.829 496.262 214.194 496.251 213.458H498.283C498.283 213.831 498.369 214.167 498.539 214.466C498.721 214.754 498.966 214.983 499.275 215.154C499.595 215.325 499.979 215.41 500.427 215.41C500.811 215.41 501.142 215.351 501.419 215.234C501.707 215.106 501.926 214.93 502.075 214.706C502.235 214.471 502.315 214.199 502.315 213.89C502.315 213.538 502.23 213.25 502.059 213.026C501.899 212.791 501.675 212.594 501.387 212.434C501.099 212.274 500.769 212.135 500.395 212.018C500.022 211.89 499.627 211.757 499.211 211.618C498.326 211.319 497.659 210.941 497.211 210.482C496.763 210.013 496.539 209.389 496.539 208.61C496.539 207.959 496.694 207.399 497.003 206.93C497.313 206.461 497.745 206.098 498.299 205.842C498.865 205.575 499.515 205.442 500.251 205.442C500.998 205.442 501.649 205.575 502.203 205.842C502.769 206.109 503.211 206.482 503.531 206.962C503.862 207.431 504.033 207.997 504.043 208.658H501.995C501.985 208.381 501.91 208.125 501.771 207.89C501.633 207.645 501.43 207.447 501.163 207.298C500.907 207.138 500.593 207.058 500.219 207.058C499.899 207.047 499.611 207.101 499.355 207.218C499.11 207.325 498.913 207.485 498.763 207.698C498.625 207.901 498.555 208.157 498.555 208.466C498.555 208.765 498.619 209.015 498.747 209.218C498.886 209.41 499.083 209.575 499.339 209.714C499.595 209.842 499.894 209.965 500.235 210.082C500.577 210.199 500.95 210.327 501.355 210.466C501.91 210.647 502.411 210.871 502.859 211.138C503.318 211.394 503.681 211.73 503.947 212.146C504.214 212.562 504.347 213.101 504.347 213.762C504.347 214.338 504.198 214.877 503.899 215.378C503.601 215.869 503.163 216.269 502.587 216.578C502.011 216.877 501.291 217.026 500.427 217.026ZM509.654 216.834C509.11 216.834 508.635 216.749 508.23 216.578C507.835 216.407 507.526 216.125 507.302 215.73C507.078 215.335 506.966 214.802 506.966 214.13V210.386H505.59V208.77H506.966L507.19 206.642H508.886V208.77H511.078V210.386H508.886V214.13C508.886 214.535 508.971 214.818 509.142 214.978C509.323 215.127 509.622 215.202 510.038 215.202H511.03V216.834H509.654ZM516.441 217.026C515.673 217.026 514.98 216.85 514.361 216.498C513.753 216.135 513.273 215.639 512.921 215.01C512.58 214.37 512.409 213.639 512.409 212.818C512.409 211.975 512.585 211.239 512.937 210.61C513.289 209.97 513.769 209.474 514.377 209.122C514.996 208.759 515.689 208.578 516.457 208.578C517.225 208.578 517.913 208.759 518.521 209.122C519.14 209.474 519.62 209.965 519.961 210.594C520.313 211.223 520.489 211.959 520.489 212.802C520.489 213.645 520.313 214.381 519.961 215.01C519.609 215.639 519.124 216.135 518.505 216.498C517.897 216.85 517.209 217.026 516.441 217.026ZM516.441 215.378C516.825 215.378 517.172 215.282 517.481 215.09C517.801 214.898 518.057 214.61 518.249 214.226C518.441 213.842 518.537 213.367 518.537 212.802C518.537 212.237 518.441 211.767 518.249 211.394C518.068 211.01 517.817 210.722 517.497 210.53C517.188 210.338 516.841 210.242 516.457 210.242C516.084 210.242 515.737 210.338 515.417 210.53C515.097 210.722 514.841 211.01 514.649 211.394C514.457 211.767 514.361 212.237 514.361 212.802C514.361 213.367 514.457 213.842 514.649 214.226C514.841 214.61 515.092 214.898 515.401 215.09C515.721 215.282 516.068 215.378 516.441 215.378ZM522.369 220.354V208.77H524.081L524.289 209.938C524.46 209.703 524.662 209.485 524.897 209.282C525.142 209.069 525.436 208.898 525.777 208.77C526.129 208.642 526.529 208.578 526.977 208.578C527.734 208.578 528.401 208.765 528.977 209.138C529.564 209.511 530.022 210.018 530.353 210.658C530.684 211.287 530.849 212.007 530.849 212.818C530.849 213.629 530.678 214.354 530.337 214.994C530.006 215.623 529.548 216.119 528.961 216.482C528.385 216.845 527.724 217.026 526.977 217.026C526.369 217.026 525.836 216.914 525.377 216.69C524.929 216.455 524.566 216.125 524.289 215.698V220.354H522.369ZM526.577 215.362C527.025 215.362 527.425 215.255 527.777 215.042C528.129 214.829 528.401 214.53 528.593 214.146C528.796 213.762 528.897 213.319 528.897 212.818C528.897 212.306 528.796 211.858 528.593 211.474C528.401 211.09 528.129 210.791 527.777 210.578C527.425 210.365 527.025 210.258 526.577 210.258C526.118 210.258 525.713 210.365 525.361 210.578C525.02 210.791 524.748 211.09 524.545 211.474C524.353 211.858 524.257 212.301 524.257 212.802C524.257 213.314 524.353 213.762 524.545 214.146C524.748 214.519 525.02 214.818 525.361 215.042C525.713 215.255 526.118 215.362 526.577 215.362ZM447.77 241.026C447.002 241.026 446.308 240.85 445.69 240.498C445.082 240.135 444.602 239.639 444.25 239.01C443.908 238.37 443.738 237.639 443.738 236.818C443.738 235.975 443.914 235.239 444.266 234.61C444.618 233.97 445.098 233.474 445.706 233.122C446.324 232.759 447.018 232.578 447.786 232.578C448.554 232.578 449.242 232.759 449.85 233.122C450.468 233.474 450.948 233.965 451.29 234.594C451.642 235.223 451.818 235.959 451.818 236.802C451.818 237.645 451.642 238.381 451.29 239.01C450.938 239.639 450.452 240.135 449.834 240.498C449.226 240.85 448.538 241.026 447.77 241.026ZM447.77 239.378C448.154 239.378 448.5 239.282 448.81 239.09C449.13 238.898 449.386 238.61 449.578 238.226C449.77 237.842 449.866 237.367 449.866 236.802C449.866 236.237 449.77 235.767 449.578 235.394C449.396 235.01 449.146 234.722 448.826 234.53C448.516 234.338 448.17 234.242 447.786 234.242C447.412 234.242 447.066 234.338 446.746 234.53C446.426 234.722 446.17 235.01 445.978 235.394C445.786 235.767 445.69 236.237 445.69 236.802C445.69 237.367 445.786 237.842 445.978 238.226C446.17 238.61 446.42 238.898 446.73 239.09C447.05 239.282 447.396 239.378 447.77 239.378ZM453.697 240.834V232.77H455.409L455.585 234.274C455.777 233.922 456.017 233.623 456.305 233.378C456.593 233.122 456.929 232.925 457.313 232.786C457.708 232.647 458.14 232.578 458.609 232.578V234.61H457.937C457.617 234.61 457.313 234.653 457.025 234.738C456.737 234.813 456.486 234.941 456.273 235.122C456.07 235.293 455.91 235.533 455.793 235.842C455.676 236.141 455.617 236.519 455.617 236.978V240.834H453.697ZM469.003 241.026C467.893 241.026 466.933 240.786 466.123 240.306C465.323 239.815 464.704 239.138 464.267 238.274C463.84 237.399 463.627 236.391 463.627 235.25C463.627 234.098 463.84 233.09 464.267 232.226C464.704 231.351 465.323 230.669 466.123 230.178C466.933 229.687 467.893 229.442 469.003 229.442C470.336 229.442 471.424 229.773 472.267 230.434C473.109 231.085 473.643 232.007 473.867 233.202H471.755C471.605 232.573 471.301 232.077 470.843 231.714C470.384 231.351 469.765 231.17 468.987 231.17C468.283 231.17 467.675 231.335 467.163 231.666C466.661 231.986 466.272 232.455 465.995 233.074C465.728 233.682 465.595 234.407 465.595 235.25C465.595 236.093 465.728 236.818 465.995 237.426C466.272 238.023 466.661 238.487 467.163 238.818C467.675 239.138 468.283 239.298 468.987 239.298C469.765 239.298 470.384 239.133 470.843 238.802C471.301 238.461 471.605 237.991 471.755 237.394H473.867C473.653 238.525 473.12 239.415 472.267 240.066C471.424 240.706 470.336 241.026 469.003 241.026ZM479.441 241.026C478.673 241.026 477.98 240.85 477.361 240.498C476.753 240.135 476.273 239.639 475.921 239.01C475.58 238.37 475.409 237.639 475.409 236.818C475.409 235.975 475.585 235.239 475.937 234.61C476.289 233.97 476.769 233.474 477.377 233.122C477.996 232.759 478.689 232.578 479.457 232.578C480.225 232.578 480.913 232.759 481.521 233.122C482.14 233.474 482.62 233.965 482.961 234.594C483.313 235.223 483.489 235.959 483.489 236.802C483.489 237.645 483.313 238.381 482.961 239.01C482.609 239.639 482.124 240.135 481.505 240.498C480.897 240.85 480.209 241.026 479.441 241.026ZM479.441 239.378C479.825 239.378 480.172 239.282 480.481 239.09C480.801 238.898 481.057 238.61 481.249 238.226C481.441 237.842 481.537 237.367 481.537 236.802C481.537 236.237 481.441 235.767 481.249 235.394C481.068 235.01 480.817 234.722 480.497 234.53C480.188 234.338 479.841 234.242 479.457 234.242C479.084 234.242 478.737 234.338 478.417 234.53C478.097 234.722 477.841 235.01 477.649 235.394C477.457 235.767 477.361 236.237 477.361 236.802C477.361 237.367 477.457 237.842 477.649 238.226C477.841 238.61 478.092 238.898 478.401 239.09C478.721 239.282 479.068 239.378 479.441 239.378ZM485.369 240.834V232.77H487.065L487.209 234.114C487.454 233.645 487.806 233.271 488.265 232.994C488.724 232.717 489.268 232.578 489.897 232.578C490.548 232.578 491.102 232.717 491.561 232.994C492.02 233.261 492.372 233.655 492.617 234.178C492.873 234.701 493.001 235.351 493.001 236.13V240.834H491.081V236.306C491.081 235.634 490.932 235.117 490.633 234.754C490.334 234.391 489.892 234.21 489.305 234.21C488.921 234.21 488.574 234.301 488.265 234.482C487.966 234.663 487.726 234.93 487.545 235.282C487.374 235.623 487.289 236.039 487.289 236.53V240.834H485.369ZM498.529 240.834C497.985 240.834 497.51 240.749 497.105 240.578C496.71 240.407 496.401 240.125 496.177 239.73C495.953 239.335 495.841 238.802 495.841 238.13V234.386H494.465V232.77H495.841L496.065 230.642H497.761V232.77H499.953V234.386H497.761V238.13C497.761 238.535 497.846 238.818 498.017 238.978C498.198 239.127 498.497 239.202 498.913 239.202H499.905V240.834H498.529ZM501.84 240.834V232.77H503.76V240.834H501.84ZM502.799 231.49C502.448 231.49 502.154 231.383 501.92 231.17C501.696 230.946 501.584 230.674 501.584 230.354C501.584 230.023 501.696 229.757 501.92 229.554C502.154 229.341 502.448 229.234 502.799 229.234C503.152 229.234 503.44 229.341 503.664 229.554C503.898 229.757 504.016 230.023 504.016 230.354C504.016 230.674 503.898 230.946 503.664 231.17C503.44 231.383 503.152 231.49 502.799 231.49ZM505.978 240.834V232.77H507.674L507.818 234.114C508.064 233.645 508.416 233.271 508.874 232.994C509.333 232.717 509.877 232.578 510.506 232.578C511.157 232.578 511.712 232.717 512.17 232.994C512.629 233.261 512.981 233.655 513.226 234.178C513.482 234.701 513.61 235.351 513.61 236.13V240.834H511.69V236.306C511.69 235.634 511.541 235.117 511.242 234.754C510.944 234.391 510.501 234.21 509.914 234.21C509.53 234.21 509.184 234.301 508.874 234.482C508.576 234.663 508.336 234.93 508.154 235.282C507.984 235.623 507.898 236.039 507.898 236.53V240.834H505.978ZM518.627 241.026C517.976 241.026 517.416 240.898 516.947 240.642C516.488 240.375 516.136 239.981 515.891 239.458C515.645 238.925 515.523 238.269 515.523 237.49V232.77H517.443V237.298C517.443 237.991 517.587 238.519 517.875 238.882C518.173 239.234 518.621 239.41 519.219 239.41C519.603 239.41 519.944 239.319 520.243 239.138C520.552 238.957 520.792 238.695 520.963 238.354C521.144 238.002 521.235 237.575 521.235 237.074V232.77H523.155V240.834H521.459L521.315 239.49C521.069 239.959 520.712 240.333 520.243 240.61C519.784 240.887 519.245 241.026 518.627 241.026ZM529.067 241.026C528.267 241.026 527.563 240.855 526.955 240.514C526.347 240.162 525.872 239.671 525.531 239.042C525.189 238.413 525.019 237.687 525.019 236.866C525.019 236.013 525.184 235.266 525.515 234.626C525.856 233.986 526.331 233.485 526.939 233.122C527.557 232.759 528.272 232.578 529.083 232.578C529.872 232.578 530.56 232.754 531.147 233.106C531.733 233.458 532.187 233.933 532.507 234.53C532.827 235.117 532.987 235.778 532.987 236.514C532.987 236.621 532.987 236.738 532.987 236.866C532.987 236.994 532.976 237.127 532.955 237.266H526.395V236.034H531.051C531.029 235.447 530.832 234.989 530.459 234.658C530.085 234.317 529.621 234.146 529.067 234.146C528.672 234.146 528.309 234.237 527.979 234.418C527.648 234.599 527.387 234.871 527.195 235.234C527.003 235.586 526.907 236.034 526.907 236.578V237.042C526.907 237.543 526.997 237.975 527.179 238.338C527.371 238.701 527.627 238.978 527.947 239.17C528.277 239.351 528.645 239.442 529.051 239.442C529.499 239.442 529.867 239.346 530.155 239.154C530.453 238.962 530.672 238.706 530.811 238.386H532.763C532.613 238.887 532.368 239.341 532.027 239.746C531.685 240.141 531.264 240.455 530.763 240.69C530.261 240.914 529.696 241.026 529.067 241.026Z" fill="#000D66"/>
<g filter="url(#filter5_d_383_9291)">
<rect x="411.633" y="274.24" width="153.005" height="84.9155" rx="5.28334" fill="white"/>
</g>
<g clip-path="url(#clip3_383_9291)">
<path d="M465.26 341.945H434.01C428.832 341.945 424.635 337.748 424.635 332.57V301.32C424.635 296.142 428.832 291.945 434.01 291.945H465.26C470.438 291.945 474.635 296.142 474.635 301.32V332.57C474.635 337.748 470.438 341.945 465.26 341.945Z" fill="#6E58F1"/>
<path d="M451.55 316.702C452.213 315.58 453.481 314.861 454.841 314.861C456.202 314.861 457.472 315.584 458.159 316.747L459.159 318.37C459.702 317.894 460.05 317.202 460.05 316.423V307.048C460.05 305.611 458.884 304.445 457.445 304.445H439.738C438.298 304.445 437.133 305.611 437.133 307.05V316.425C437.133 317.862 438.298 319.03 439.738 319.03H450.119L451.55 316.702ZM448.039 312.862L439.216 308.748V307.019L448.591 311.394L457.966 307.019V308.748L449.142 312.862C448.966 312.945 448.778 312.987 448.591 312.987C448.403 312.987 448.216 312.945 448.039 312.862Z" fill="white"/>
<path d="M461.868 326.744L456.366 317.808C456.052 317.275 455.468 316.945 454.841 316.945C454.214 316.945 453.63 317.275 453.324 317.794L447.832 326.717C447.647 326.992 447.549 327.322 447.549 327.669C447.549 328.648 448.349 329.444 449.332 329.444H460.349C461.333 329.445 462.133 328.648 462.133 327.67C462.133 327.322 462.036 326.994 461.868 326.744ZM454.841 327.363C454.41 327.363 454.06 327.013 454.06 326.581C454.06 326.15 454.41 325.8 454.841 325.8C455.272 325.8 455.622 326.15 455.622 326.581C455.622 327.013 455.272 327.363 454.841 327.363ZM455.622 323.977C455.622 324.408 455.272 324.758 454.841 324.758C454.41 324.758 454.06 324.408 454.06 323.977V320.852C454.06 320.42 454.41 320.07 454.841 320.07C455.272 320.07 455.622 320.42 455.622 320.852V323.977Z" fill="white" fill-opacity="0.8"/>
</g>
<line opacity="0.3" x1="487.073" y1="292.445" x2="487.073" y2="341.445" stroke="#727272" stroke-width="0.880557"/>
<g filter="url(#filter6_ddd_383_9291)">
<g clip-path="url(#clip4_383_9291)">
<path d="M539.258 341.945H508.008C502.83 341.945 498.633 337.748 498.633 332.57V301.32C498.633 296.142 502.83 291.945 508.008 291.945H539.258C544.436 291.945 548.633 296.142 548.633 301.32V332.57C548.633 337.748 544.436 341.945 539.258 341.945Z" fill="#6E58F1"/>
<path d="M524.939 315.756C525.473 315.189 526.233 314.861 527.019 314.861C527.381 314.861 527.736 314.928 528.073 315.063C529.175 315.503 529.883 316.547 529.883 317.727V318.241C530.628 318.405 531.336 318.653 532.011 318.963C533.177 318.703 534.048 317.667 534.048 316.423V307.048C534.05 305.611 532.884 304.445 531.445 304.445H513.737C512.298 304.445 511.133 305.611 511.133 307.05V316.425C511.133 317.863 512.298 319.03 513.737 319.03H521.839L524.939 315.756ZM513.216 307.019L522.591 311.394L531.966 307.019V308.748L523.142 312.863C522.966 312.945 522.778 312.988 522.591 312.988C522.403 312.988 522.216 312.945 522.039 312.863L513.216 308.748V307.019Z" fill="white"/>
<path d="M527.799 320.075V317.727C527.799 317.407 527.604 317.119 527.307 317C527.01 316.883 526.67 316.957 526.451 317.189L521.763 322.138C521.477 322.439 521.477 322.911 521.763 323.213L526.451 328.161C526.671 328.394 527.01 328.467 527.307 328.35C527.604 328.232 527.799 327.944 527.799 327.624V325.28H528.418C530.859 325.28 533.087 326.516 534.38 328.586L534.69 329.08C534.834 329.311 535.087 329.446 535.351 329.446C535.423 329.446 535.495 329.436 535.566 329.414C535.901 329.319 536.132 329.013 536.132 328.664C536.132 324.013 532.418 320.213 527.799 320.075Z" fill="white" fill-opacity="0.7"/>
</g>
</g>
</g>
<rect x="397.092" y="182.092" width="181.817" height="201.817" rx="13.8577" stroke="white" stroke-width="1.81698"/>
<path d="M178.199 145C178.199 147.099 179.901 148.801 182 148.801C184.099 148.801 185.801 147.099 185.801 145C185.801 142.901 184.099 141.199 182 141.199C179.901 141.199 178.199 142.901 178.199 145ZM212 145L204.873 140.885L204.873 149.115L212 145ZM182 145L182 145.713L183.5 145.713L183.5 145L183.5 144.287L182 144.287L182 145ZM186.5 145L186.5 145.713L189.5 145.713L189.5 145L189.5 144.287L186.5 144.287L186.5 145ZM192.5 145L192.5 145.713L195.5 145.713L195.5 145L195.5 144.287L192.5 144.287L192.5 145ZM198.5 145L198.5 145.713L201.5 145.713L201.5 145L201.5 144.287L198.5 144.287L198.5 145ZM204.5 145L204.5 145.713L207.5 145.713L207.5 145L207.5 144.287L204.5 144.287L204.5 145Z" fill="#6E58F1"/>
<path d="M364.199 228C364.199 230.099 365.901 231.801 368 231.801C370.099 231.801 371.801 230.099 371.801 228C371.801 225.901 370.099 224.199 368 224.199C365.901 224.199 364.199 225.901 364.199 228ZM398 228L390.873 223.885L390.873 232.115L398 228ZM368 228L368 228.713L369.5 228.713L369.5 228L369.5 227.287L368 227.287L368 228ZM372.5 228L372.5 228.713L375.5 228.713L375.5 228L375.5 227.287L372.5 227.287L372.5 228ZM378.5 228L378.5 228.713L381.5 228.713L381.5 228L381.5 227.287L378.5 227.287L378.5 228ZM384.5 228L384.5 228.713L387.5 228.713L387.5 228L387.5 227.287L384.5 227.287L384.5 228ZM390.5 228L390.5 228.713L393.5 228.713L393.5 228L393.5 227.287L390.5 227.287L390.5 228Z" fill="#6E58F1"/>
<path d="M324.609 345.5C328.752 341.358 328.752 334.642 324.609 330.5C320.467 326.358 313.752 326.358 309.609 330.5C305.467 334.642 305.467 341.358 309.609 345.5C313.752 349.642 320.467 349.642 324.609 345.5Z" fill="#61F9CB"/>
<path d="M315.249 341.548C315.049 341.548 314.857 341.461 314.716 341.308L313.438 339.921C313.143 339.602 313.143 339.084 313.438 338.765C313.732 338.445 314.209 338.445 314.504 338.765L315.249 339.573L319.015 335.49C319.309 335.17 319.786 335.17 320.081 335.49C320.375 335.809 320.375 336.327 320.081 336.646L315.783 341.308C315.642 341.461 315.45 341.548 315.25 341.548H315.249Z" fill="#282B42"/>
<path d="M277.5 37.5C284.404 30.5964 284.404 19.4036 277.5 12.5C270.596 5.59644 259.404 5.59644 252.5 12.5C245.596 19.4036 245.596 30.5964 252.5 37.5C259.404 44.4036 270.596 44.4036 277.5 37.5Z" fill="#61F9CB"/>
<path d="M261.899 30.9121C261.566 30.9121 261.246 30.7681 261.011 30.5127L258.88 28.2017C258.389 27.6691 258.389 26.8067 258.88 26.2741C259.371 25.7416 260.166 25.7416 260.657 26.2741L261.899 27.6214L268.175 20.8154C268.666 20.2829 269.461 20.2829 269.952 20.8154C270.443 21.348 270.443 22.2104 269.952 22.743L262.789 30.5127C262.553 30.7681 262.233 30.9121 261.9 30.9121H261.899Z" fill="#282B42"/>
<path d="M122.283 314.567C134.59 314.567 144.567 304.59 144.567 292.283C144.567 279.977 134.59 270 122.283 270C109.977 270 100 279.977 100 292.283C100 304.59 109.977 314.567 122.283 314.567Z" fill="#EDEAFF"/>
<path d="M137.545 289.489C137.516 288.818 137.021 288.247 136.348 288.13L135.019 287.886C134.561 287.799 134.156 287.506 133.965 287.078C133.906 286.927 133.826 286.772 133.752 286.627C133.544 286.199 133.565 285.698 133.799 285.279L134.462 284.115C134.793 283.522 134.674 282.776 134.175 282.324L131.105 279.525C130.61 279.069 129.856 279.02 129.299 279.406L128.195 280.168C127.808 280.433 127.311 280.505 126.872 280.34C126.716 280.285 126.552 280.219 126.391 280.162C125.942 280.012 125.605 279.636 125.475 279.186L125.122 277.896C124.943 277.243 124.329 276.802 123.648 276.831L119.501 277.026C118.83 277.056 118.263 277.551 118.146 278.213L117.903 279.548C117.815 280.012 117.513 280.412 117.082 280.603C116.922 280.673 116.772 280.741 116.616 280.817C116.197 281.026 115.698 281 115.285 280.77L114.123 280.114C113.531 279.782 112.79 279.905 112.332 280.4L109.533 283.472C109.075 283.967 109.029 284.721 109.415 285.279L110.182 286.388C110.451 286.77 110.52 287.269 110.354 287.707C110.294 287.865 110.227 288.031 110.173 288.192C110.032 288.641 109.656 288.974 109.2 289.105L107.914 289.457C107.255 289.637 106.815 290.256 106.85 290.931L107.045 295.078C107.074 295.755 107.569 296.326 108.241 296.443L109.555 296.677C110.019 296.764 110.422 297.057 110.609 297.497C110.679 297.647 110.754 297.803 110.833 297.963C111.042 298.382 111.017 298.881 110.777 299.296L110.12 300.458C109.789 301.05 109.912 301.797 110.407 302.249L113.482 305.048C113.981 305.506 114.732 305.552 115.293 305.167L116.396 304.405C116.784 304.139 117.281 304.067 117.715 304.233C117.877 304.299 118.035 304.354 118.201 304.408C118.655 304.558 118.982 304.935 119.113 305.387L119.466 306.677C119.639 307.33 120.259 307.77 120.935 307.741L125.089 307.546C125.769 307.513 126.33 307.022 126.447 306.35L126.691 305.026C126.779 304.568 127.071 304.163 127.5 303.976C127.659 303.902 127.815 303.831 127.966 303.757C128.385 303.539 128.895 303.564 129.303 303.804L130.464 304.461C131.061 304.792 131.803 304.67 132.255 304.175L135.054 301.099C135.51 300.594 135.565 299.85 135.179 299.288L134.407 298.173C134.142 297.791 134.07 297.304 134.241 296.864C134.302 296.702 134.356 296.546 134.403 296.394C134.553 295.94 134.929 295.612 135.385 295.482L136.682 295.117C137.335 294.938 137.775 294.318 137.746 293.654L137.551 289.49L137.545 289.489ZM122.366 298.538C118.91 298.579 116.08 295.809 116.039 292.357C115.998 288.906 118.764 286.072 122.22 286.031C125.671 285.99 128.505 288.76 128.546 292.211C128.587 295.663 125.818 298.499 122.366 298.538Z" fill="#6E58F1"/>
<path d="M122.209 285.35C118.377 285.395 115.309 288.535 115.354 292.369C115.399 296.2 118.539 299.268 122.372 299.223C126.204 299.179 129.272 296.037 129.227 292.205C129.182 288.373 126.043 285.305 122.209 285.35ZM122.365 298.539C118.909 298.58 116.079 295.811 116.038 292.359C115.997 288.907 118.763 286.073 122.219 286.032C125.67 285.991 128.504 288.761 128.545 292.213C128.586 295.664 125.816 298.5 122.365 298.539Z" fill="#D7E7FF"/>
<path d="M479.319 71.6613C479.319 79.756 472.757 86.3182 464.657 86.3182C456.557 86.3182 450 79.756 450 71.6613C450 63.5665 456.562 57 464.657 57C472.752 57 479.319 63.5622 479.319 71.6613Z" fill="#6E58F1"/>
<path d="M471.125 67.6419C470.494 66.6798 469.63 65.9157 468.559 65.3704C467.489 64.8262 466.308 64.5508 465.05 64.5508C463.669 64.5508 462.363 64.9132 461.171 65.6283C459.98 66.3424 459.018 67.3111 458.309 68.5073C457.6 69.7056 457.24 71.0139 457.24 72.3941C457.24 73.5086 457.51 74.5688 458.045 75.544C458.578 76.5192 459.346 77.3095 460.328 77.8929C461.31 78.4752 462.453 78.7712 463.726 78.7712C465.249 78.7712 466.676 78.4436 467.968 77.7971C468.061 77.7503 468.139 77.6773 468.2 77.5783C468.26 77.4803 468.29 77.3759 468.29 77.2692C468.29 77.1157 468.236 76.9818 468.127 76.873C467.969 76.7163 467.77 76.6542 467.467 76.7544C466.774 77.0286 466.151 77.2376 465.616 77.3748C465.084 77.5108 464.448 77.5794 463.725 77.5794C462.63 77.5794 461.675 77.329 460.882 76.8371C460.089 76.3429 459.476 75.692 459.06 74.9007C458.642 74.1073 458.431 73.2637 458.431 72.3941C458.431 71.2262 458.736 70.1203 459.338 69.1048C459.941 68.0893 460.758 67.2675 461.768 66.6656C462.776 66.0637 463.88 65.759 465.048 65.759C466.015 65.759 466.958 65.9625 467.85 66.3641C468.737 66.7636 469.468 67.3622 470.02 68.1437C470.569 68.923 470.848 69.8645 470.848 70.9443C470.848 72.024 470.65 72.8948 470.26 73.525C469.876 74.1443 469.344 74.4447 468.635 74.4447C468.375 74.4447 468.186 74.3533 468.058 74.1639C467.922 73.9625 467.853 73.7024 467.853 73.3911C467.853 73.0624 467.895 72.6738 467.978 72.2352L468.577 68.7815L468.596 68.5704C468.596 68.344 468.52 68.1524 468.37 68.0022C468.08 67.7127 467.605 67.7029 467.294 67.9685C467.144 68.0969 467.054 68.2569 467.026 68.4398L467.011 68.5258C466.382 67.9913 465.631 67.7203 464.774 67.7203C464.02 67.7203 463.296 67.9021 462.623 68.2602C461.947 68.6194 461.395 69.1473 460.98 69.8275C460.565 70.5078 460.355 71.323 460.355 72.2482C460.355 73.1734 460.641 74.0213 461.203 74.6341C461.768 75.2501 462.562 75.5625 463.56 75.5625C464.154 75.5625 464.725 75.446 465.258 75.2175C465.725 75.0172 466.139 74.7201 466.493 74.3348C466.602 74.6308 466.801 74.8931 467.088 75.1195C467.448 75.4014 467.949 75.5451 468.58 75.5451C469.38 75.5451 470.05 75.3154 470.574 74.8627C471.09 74.4153 471.473 73.8362 471.715 73.1418C471.954 72.455 472.076 71.716 472.076 70.9443C472.076 69.7176 471.755 68.6063 471.122 67.6409L471.125 67.6419ZM466.765 70.0071L466.485 71.63C466.205 73.2681 465.38 74.0637 463.962 74.0637C463.381 74.0637 462.903 73.895 462.543 73.562C462.185 73.2322 462.003 72.7293 462.003 72.0675C462.003 71.4776 462.137 70.9671 462.401 70.5481C462.665 70.1279 463.018 69.8058 463.448 69.587C463.882 69.3671 464.353 69.2561 464.851 69.2561C465.622 69.2561 466.266 69.5086 466.765 70.0071Z" fill="white"/>
<defs>
<filter id="filter0_d_383_9291" x="231.951" y="161.968" width="116.053" height="116.053" filterUnits="userSpaceOnUse" color-interpolation-filters="sRGB">
<feFlood flood-opacity="0" result="BackgroundImageFix"/>
<feColorMatrix in="SourceAlpha" type="matrix" values="0 0 0 0 0 0 0 0 0 0 0 0 0 0 0 0 0 0 127 0" result="hardAlpha"/>
<feMorphology radius="1.21187" operator="erode" in="SourceAlpha" result="effect1_dropShadow_383_9291"/>
<feOffset dy="4.84746"/>
<feGaussianBlur stdDeviation="12.1187"/>
<feColorMatrix type="matrix" values="0 0 0 0 0.0235294 0 0 0 0 0.0470588 0 0 0 0 0.231373 0 0 0 0.08 0"/>
<feBlend mode="normal" in2="BackgroundImageFix" result="effect1_dropShadow_383_9291"/>
<feBlend mode="normal" in="SourceGraphic" in2="effect1_dropShadow_383_9291" result="shape"/>
</filter>
<filter id="filter1_d_383_9291" x="241.447" y="177.921" width="97.0611" height="97.0611" filterUnits="userSpaceOnUse" color-interpolation-filters="sRGB">
<feFlood flood-opacity="0" result="BackgroundImageFix"/>
<feColorMatrix in="SourceAlpha" type="matrix" values="0 0 0 0 0 0 0 0 0 0 0 0 0 0 0 0 0 0 127 0" result="hardAlpha"/>
<feOffset dy="11.3038"/>
<feGaussianBlur stdDeviation="6.76479"/>
<feColorMatrix type="matrix" values="0 0 0 0 0.92549 0 0 0 0 0.933333 0 0 0 0 0.992157 0 0 0 0.21 0"/>
<feBlend mode="normal" in2="BackgroundImageFix" result="effect1_dropShadow_383_9291"/>
<feBlend mode="normal" in="SourceGraphic" in2="effect1_dropShadow_383_9291" result="shape"/>
</filter>
<filter id="filter2_ddd_383_9291" x="34.5443" y="87.8105" width="115.808" height="121.211" filterUnits="userSpaceOnUse" color-interpolation-filters="sRGB">
<feFlood flood-opacity="0" result="BackgroundImageFix"/>
<feColorMatrix in="SourceAlpha" type="matrix" values="0 0 0 0 0 0 0 0 0 0 0 0 0 0 0 0 0 0 127 0" result="hardAlpha"/>
<feOffset dy="4.05828"/>
<feGaussianBlur stdDeviation="1.62331"/>
<feColorMatrix type="matrix" values="0 0 0 0 0.376471 0 0 0 0 0.376471 0 0 0 0 0.376471 0 0 0 0.0243888 0"/>
<feBlend mode="normal" in2="BackgroundImageFix" result="effect1_dropShadow_383_9291"/>
<feColorMatrix in="SourceAlpha" type="matrix" values="0 0 0 0 0 0 0 0 0 0 0 0 0 0 0 0 0 0 127 0" result="hardAlpha"/>
<feOffset dy="11.2206"/>
<feGaussianBlur stdDeviation="4.48824"/>
<feColorMatrix type="matrix" values="0 0 0 0 0.376471 0 0 0 0 0.376471 0 0 0 0 0.376471 0 0 0 0.055 0"/>
<feBlend mode="normal" in2="effect1_dropShadow_383_9291" result="effect2_dropShadow_383_9291"/>
<feColorMatrix in="SourceAlpha" type="matrix" values="0 0 0 0 0 0 0 0 0 0 0 0 0 0 0 0 0 0 127 0" result="hardAlpha"/>
<feOffset dy="27.0149"/>
<feGaussianBlur stdDeviation="10.806"/>
<feColorMatrix type="matrix" values="0 0 0 0 0.92549 0 0 0 0 0.933333 0 0 0 0 0.992157 0 0 0 0.31 0"/>
<feBlend mode="normal" in2="effect2_dropShadow_383_9291" result="effect3_dropShadow_383_9291"/>
<feBlend mode="normal" in="SourceGraphic" in2="effect3_dropShadow_383_9291" result="shape"/>
</filter>
<filter id="filter3_ddd_383_9291" x="7.66151" y="144.848" width="75.966" height="81.369" filterUnits="userSpaceOnUse" color-interpolation-filters="sRGB">
<feFlood flood-opacity="0" result="BackgroundImageFix"/>
<feColorMatrix in="SourceAlpha" type="matrix" values="0 0 0 0 0 0 0 0 0 0 0 0 0 0 0 0 0 0 127 0" result="hardAlpha"/>
<feOffset dy="4.05828"/>
<feGaussianBlur stdDeviation="1.62331"/>
<feColorMatrix type="matrix" values="0 0 0 0 0.376471 0 0 0 0 0.376471 0 0 0 0 0.376471 0 0 0 0.0243888 0"/>
<feBlend mode="normal" in2="BackgroundImageFix" result="effect1_dropShadow_383_9291"/>
<feColorMatrix in="SourceAlpha" type="matrix" values="0 0 0 0 0 0 0 0 0 0 0 0 0 0 0 0 0 0 127 0" result="hardAlpha"/>
<feOffset dy="11.2206"/>
<feGaussianBlur stdDeviation="4.48824"/>
<feColorMatrix type="matrix" values="0 0 0 0 0.376471 0 0 0 0 0.376471 0 0 0 0 0.376471 0 0 0 0.055 0"/>
<feBlend mode="normal" in2="effect1_dropShadow_383_9291" result="effect2_dropShadow_383_9291"/>
<feColorMatrix in="SourceAlpha" type="matrix" values="0 0 0 0 0 0 0 0 0 0 0 0 0 0 0 0 0 0 127 0" result="hardAlpha"/>
<feOffset dy="27.0149"/>
<feGaussianBlur stdDeviation="10.806"/>
<feColorMatrix type="matrix" values="0 0 0 0 0.92549 0 0 0 0 0.933333 0 0 0 0 0.992157 0 0 0 0.31 0"/>
<feBlend mode="normal" in2="effect2_dropShadow_383_9291" result="effect3_dropShadow_383_9291"/>
<feBlend mode="normal" in="SourceGraphic" in2="effect3_dropShadow_383_9291" result="shape"/>
</filter>
<filter id="filter4_ddd_383_9291" x="98.1654" y="145.742" width="86.6985" height="92.1014" filterUnits="userSpaceOnUse" color-interpolation-filters="sRGB">
<feFlood flood-opacity="0" result="BackgroundImageFix"/>
<feColorMatrix in="SourceAlpha" type="matrix" values="0 0 0 0 0 0 0 0 0 0 0 0 0 0 0 0 0 0 127 0" result="hardAlpha"/>
<feOffset dy="4.05828"/>
<feGaussianBlur stdDeviation="1.62331"/>
<feColorMatrix type="matrix" values="0 0 0 0 0.376471 0 0 0 0 0.376471 0 0 0 0 0.376471 0 0 0 0.0243888 0"/>
<feBlend mode="normal" in2="BackgroundImageFix" result="effect1_dropShadow_383_9291"/>
<feColorMatrix in="SourceAlpha" type="matrix" values="0 0 0 0 0 0 0 0 0 0 0 0 0 0 0 0 0 0 127 0" result="hardAlpha"/>
<feOffset dy="11.2206"/>
<feGaussianBlur stdDeviation="4.48824"/>
<feColorMatrix type="matrix" values="0 0 0 0 0.376471 0 0 0 0 0.376471 0 0 0 0 0.376471 0 0 0 0.055 0"/>
<feBlend mode="normal" in2="effect1_dropShadow_383_9291" result="effect2_dropShadow_383_9291"/>
<feColorMatrix in="SourceAlpha" type="matrix" values="0 0 0 0 0 0 0 0 0 0 0 0 0 0 0 0 0 0 127 0" result="hardAlpha"/>
<feOffset dy="27.0149"/>
<feGaussianBlur stdDeviation="10.806"/>
<feColorMatrix type="matrix" values="0 0 0 0 0.92549 0 0 0 0 0.933333 0 0 0 0 0.992157 0 0 0 0.31 0"/>
<feBlend mode="normal" in2="effect2_dropShadow_383_9291" result="effect3_dropShadow_383_9291"/>
<feBlend mode="normal" in="SourceGraphic" in2="effect3_dropShadow_383_9291" result="shape"/>
</filter>
<filter id="filter5_d_383_9291" x="394.022" y="261.912" width="188.228" height="120.138" filterUnits="userSpaceOnUse" color-interpolation-filters="sRGB">
<feFlood flood-opacity="0" result="BackgroundImageFix"/>
<feColorMatrix in="SourceAlpha" type="matrix" values="0 0 0 0 0 0 0 0 0 0 0 0 0 0 0 0 0 0 127 0" result="hardAlpha"/>
<feOffset dy="5.28334"/>
<feGaussianBlur stdDeviation="8.80557"/>
<feColorMatrix type="matrix" values="0 0 0 0 0.11 0 0 0 0 0.14137 0 0 0 0 0.4125 0 0 0 0.05 0"/>
<feBlend mode="normal" in2="BackgroundImageFix" result="effect1_dropShadow_383_9291"/>
<feBlend mode="normal" in="SourceGraphic" in2="effect1_dropShadow_383_9291" result="shape"/>
</filter>
<filter id="filter6_ddd_383_9291" x="473.342" y="291.945" width="100.582" height="106.905" filterUnits="userSpaceOnUse" color-interpolation-filters="sRGB">
<feFlood flood-opacity="0" result="BackgroundImageFix"/>
<feColorMatrix in="SourceAlpha" type="matrix" values="0 0 0 0 0 0 0 0 0 0 0 0 0 0 0 0 0 0 127 0" result="hardAlpha"/>
<feOffset dy="4.74915"/>
<feGaussianBlur stdDeviation="1.89966"/>
<feColorMatrix type="matrix" values="0 0 0 0 0.376471 0 0 0 0 0.376471 0 0 0 0 0.376471 0 0 0 0.0243888 0"/>
<feBlend mode="normal" in2="BackgroundImageFix" result="effect1_dropShadow_383_9291"/>
<feColorMatrix in="SourceAlpha" type="matrix" values="0 0 0 0 0 0 0 0 0 0 0 0 0 0 0 0 0 0 127 0" result="hardAlpha"/>
<feOffset dy="13.1308"/>
<feGaussianBlur stdDeviation="5.25232"/>
<feColorMatrix type="matrix" values="0 0 0 0 0.376471 0 0 0 0 0.376471 0 0 0 0 0.376471 0 0 0 0.055 0"/>
<feBlend mode="normal" in2="effect1_dropShadow_383_9291" result="effect2_dropShadow_383_9291"/>
<feColorMatrix in="SourceAlpha" type="matrix" values="0 0 0 0 0 0 0 0 0 0 0 0 0 0 0 0 0 0 127 0" result="hardAlpha"/>
<feOffset dy="31.6139"/>
<feGaussianBlur stdDeviation="12.6456"/>
<feColorMatrix type="matrix" values="0 0 0 0 0.00784314 0 0 0 0 0.027451 0 0 0 0 0.423529 0 0 0 0.03 0"/>
<feBlend mode="normal" in2="effect2_dropShadow_383_9291" result="effect3_dropShadow_383_9291"/>
<feBlend mode="normal" in="SourceGraphic" in2="effect3_dropShadow_383_9291" result="shape"/>
</filter>
<linearGradient id="paint0_linear_383_9291" x1="2" y1="20.1868" x2="168.757" y2="277.133" gradientUnits="userSpaceOnUse">
<stop offset="0.0954282" stop-color="#DDE8FF"/>
<stop offset="1" stop-color="#BFADFF"/>
</linearGradient>
<linearGradient id="paint1_linear_383_9291" x1="398" y1="196.187" x2="564.757" y2="453.133" gradientUnits="userSpaceOnUse">
<stop offset="0.0954282" stop-color="#DDE8FF"/>
<stop offset="1" stop-color="#BFADFF"/>
</linearGradient>
<clipPath id="clip0_383_9291">
<rect x="212" y="107" width="155.953" height="157.636" rx="11.2196" fill="white"/>
</clipPath>
<clipPath id="clip1_383_9291">
<rect x="2" y="7" width="180" height="200" rx="12.9492" fill="white"/>
</clipPath>
<clipPath id="clip2_383_9291">
<rect x="398" y="183" width="180" height="200" rx="12.9492" fill="white"/>
</clipPath>
<clipPath id="clip3_383_9291">
<rect x="424.633" y="291.945" width="50" height="50" rx="25" fill="white"/>
</clipPath>
<clipPath id="clip4_383_9291">
<rect x="498.633" y="291.945" width="50" height="50" rx="25" fill="white"/>
</clipPath>
</defs>
</svg>
